SN Abbatia Beta-Regular.ufo
<glyph name="exclam" format="2">
  <advance width="225"/>
  <unicode hex="0021"/>
  <outline>
    <contour>
      <point x="84" y="233" type="line"/>
      <point x="134" y="233" type="line"/>
      <point x="170" y="730" type="line"/>
      <point x="149" y="750" type="line"/>
      <point x="57" y="735" type="line"/>
      <point x="74" y="344" type="line"/>
    </contour>
    <component base="period" xOffset="-17"/>
  </outline>
</glyph>
<glyph name="ampersand" format="2">
  <advance width="538"/>
  <unicode hex="0026"/>
  <outline>
    <contour>
      <point x="512" y="393" type="line"/>
      <point x="206" y="393" type="line"/>
      <point x="187" y="418"/>
      <point x="175" y="458"/>
      <point x="175" y="512" type="curve" smooth="yes"/>
      <point x="175" y="540"/>
      <point x="176" y="562"/>
      <point x="182" y="590" type="curve"/>
      <point x="206" y="598"/>
      <point x="241" y="604"/>
      <point x="281" y="604" type="curve" smooth="yes"/>
      <point x="323" y="604"/>
      <point x="359" y="599"/>
      <point x="396" y="590" type="curve"/>
      <point x="411" y="671" type="line"/>
      <point x="374" y="683"/>
      <point x="334" y="690"/>
      <point x="278" y="690" type="curve" smooth="yes"/>
      <point x="231" y="690"/>
      <point x="186" y="682"/>
      <point x="154" y="670" type="curve"/>
      <point x="84" y="594" type="line"/>
      <point x="81" y="575"/>
      <point x="79" y="555"/>
      <point x="79" y="528" type="curve" smooth="yes"/>
      <point x="79" y="483"/>
      <point x="88" y="441"/>
      <point x="98" y="417" type="curve"/>
      <point x="170" y="368" type="line"/>
      <point x="108" y="345"/>
      <point x="47" y="282"/>
      <point x="47" y="190" type="curve" smooth="yes"/>
      <point x="47" y="47"/>
      <point x="134" y="-9"/>
      <point x="248" y="-9" type="curve" smooth="yes"/>
      <point x="298" y="-9"/>
      <point x="329" y="-4"/>
      <point x="363" y="4" type="curve"/>
      <point x="439" y="87" type="line"/>
      <point x="437" y="327" type="line"/>
      <point x="512" y="342" type="line"/>
    </contour>
    <contour>
      <point x="142" y="201" type="curve" smooth="yes"/>
      <point x="142" y="294"/>
      <point x="189" y="334"/>
      <point x="251" y="334" type="curve"/>
      <point x="343" y="333" type="line"/>
      <point x="343" y="81" type="line"/>
      <point x="316" y="72"/>
      <point x="295" y="70"/>
      <point x="258" y="70" type="curve" smooth="yes"/>
      <point x="183" y="70"/>
      <point x="142" y="119"/>
    </contour>
  </outline>
</glyph>
<glyph name="parenleft" format="2">
  <advance width="387"/>
  <unicode hex="0028"/>
  <outline>
    <contour>
      <point x="297" y="-155" type="curve"/>
      <point x="331" y="-121" type="line"/>
      <point x="227" y="0"/>
      <point x="176" y="168"/>
      <point x="176" y="336" type="curve" smooth="yes"/>
      <point x="176" y="503"/>
      <point x="227" y="671"/>
      <point x="331" y="791" type="curve"/>
      <point x="297" y="825" type="line"/>
      <point x="154" y="692"/>
      <point x="83" y="514"/>
      <point x="83" y="335" type="curve" smooth="yes"/>
      <point x="83" y="157"/>
      <point x="154" y="-21"/>
    </contour>
  </outline>
</glyph>
<glyph name="comma" format="2">
  <advance width="250"/>
  <unicode hex="002C"/>
  <outline>
    <contour>
      <point x="96" y="-180" type="line"/>
      <point x="143" y="-139"/>
      <point x="200" y="-34"/>
      <point x="200" y="55" type="curve"/>
      <point x="120" y="52" type="line"/>
      <point x="117" y="-19"/>
      <point x="88" y="-107"/>
      <point x="65" y="-161" type="curve"/>
    </contour>
    <contour>
      <point x="122" y="-6" type="line" smooth="yes"/>
      <point x="141" y="-13"/>
      <point x="163" y="-2"/>
      <point x="177" y="7" type="curve"/>
      <point x="193" y="20"/>
      <point x="200" y="36"/>
      <point x="200" y="55" type="curve" smooth="yes"/>
      <point x="200" y="95"/>
      <point x="172" y="123"/>
      <point x="131" y="123" type="curve" smooth="yes"/>
      <point x="106" y="123"/>
      <point x="87" y="112"/>
      <point x="73" y="97" type="curve"/>
      <point x="62" y="74"/>
      <point x="59" y="48"/>
      <point x="64" y="15" type="curve"/>
    </contour>
  </outline>
</glyph>
<glyph name="hyphen" format="2">
  <advance width="446"/>
  <unicode hex="002D"/>
  <outline>
    <contour>
      <point x="60" y="269" type="line"/>
      <point x="76" y="254" type="line"/>
      <point x="380" y="254" type="line"/>
      <point x="386" y="337" type="line"/>
      <point x="66" y="337" type="line"/>
    </contour>
  </outline>
</glyph>
<glyph name="period" format="2">
  <advance width="256"/>
  <unicode hex="002E"/>
  <outline>
    <contour>
      <point x="126" y="-10" type="curve" smooth="yes"/>
      <point x="145" y="-10"/>
      <point x="166" y="-5"/>
      <point x="179" y="4" type="curve"/>
      <point x="189" y="17"/>
      <point x="196" y="38"/>
      <point x="196" y="58" type="curve" smooth="yes"/>
      <point x="196" y="96"/>
      <point x="171" y="123"/>
      <point x="131" y="123" type="curve" smooth="yes"/>
      <point x="107" y="123"/>
      <point x="89" y="115"/>
      <point x="75" y="104" type="curve"/>
      <point x="64" y="90"/>
      <point x="60" y="75"/>
      <point x="60" y="54" type="curve" smooth="yes"/>
      <point x="60" y="15"/>
      <point x="88" y="-10"/>
    </contour>
  </outline>
</glyph>
<glyph name="question" format="2">
  <advance width="460"/>
  <unicode hex="003F"/>
  <outline>
    <contour>
      <point x="150" y="233" type="line"/>
      <point x="197" y="233" type="line"/>
      <point x="214" y="315" type="line"/>
      <point x="354" y="416" type="line"/>
      <point x="381" y="449"/>
      <point x="404" y="497"/>
      <point x="404" y="557" type="curve" smooth="yes"/>
      <point x="404" y="675"/>
      <point x="327" y="749"/>
      <point x="215" y="749" type="curve" smooth="yes"/>
      <point x="131" y="749"/>
      <point x="73" y="726"/>
      <point x="30" y="703" type="curve"/>
      <point x="50" y="530" type="line"/>
      <point x="104" y="530" type="line"/>
      <point x="119" y="690" type="line"/>
      <point x="91" y="653" type="line"/>
      <point x="115" y="665"/>
      <point x="160" y="671"/>
      <point x="198" y="671" type="curve" smooth="yes"/>
      <point x="273" y="671"/>
      <point x="315" y="621"/>
      <point x="315" y="546" type="curve" smooth="yes"/>
      <point x="315" y="491"/>
      <point x="289" y="454"/>
      <point x="223" y="413" type="curve" smooth="yes"/>
      <point x="186" y="390"/>
      <point x="155" y="363"/>
      <point x="137" y="325" type="curve"/>
    </contour>
    <component base="period" xOffset="47"/>
  </outline>
</glyph>
<glyph name="A" format="2">
  <advance width="610"/>
  <unicode hex="0041"/>
  <anchor x="542" y="10" name="ogonek"/>
  <anchor x="305" y="0" name="bottom"/>
  <anchor x="303" y="680" name="top"/>
  <outline>
    <contour>
      <point x="289" y="646" type="line"/>
      <point x="446" y="-1" type="line"/>
      <point x="607" y="0" type="line"/>
      <point x="607" y="48" type="line"/>
      <point x="534" y="68" type="line"/>
      <point x="381" y="657" type="line"/>
    </contour>
    <contour>
      <point x="167" y="203" type="line"/>
      <point x="408" y="203" type="line"/>
      <point x="408" y="267" type="line"/>
      <point x="167" y="267" type="line"/>
    </contour>
    <contour>
      <point x="4" y="0" type="line"/>
      <point x="242" y="0" type="line"/>
      <point x="242" y="48" type="line"/>
      <point x="156" y="67" type="line"/>
      <point x="300" y="606" type="line"/>
      <point x="338" y="611" type="line"/>
      <point x="381" y="657" type="line"/>
      <point x="352" y="690" type="line"/>
      <point x="177" y="680" type="line"/>
      <point x="167" y="634" type="line"/>
      <point x="231" y="614" type="line"/>
      <point x="77" y="68" type="line"/>
      <point x="4" y="48" type="line"/>
    </contour>
  </outline>
</glyph>
<glyph name="B" format="2">
  <advance width="564"/>
  <unicode hex="0042"/>
  <outline>
    <contour>
      <point x="310" y="-11" type="curve" smooth="yes"/>
      <point x="367" y="-11"/>
      <point x="401" y="1"/>
      <point x="429" y="17" type="curve"/>
      <point x="498" y="93" type="line"/>
      <point x="497" y="235" type="line" smooth="yes"/>
      <point x="496" y="308"/>
      <point x="461" y="347"/>
      <point x="400" y="365" type="curve"/>
      <point x="405" y="357" type="line"/>
      <point x="466" y="403" type="line"/>
      <point x="472" y="436"/>
      <point x="477" y="473"/>
      <point x="477" y="516" type="curve" smooth="yes"/>
      <point x="477" y="633"/>
      <point x="401" y="690"/>
      <point x="295" y="690" type="curve"/>
      <point x="280" y="690"/>
      <point x="200" y="668"/>
      <point x="160" y="656" type="curve"/>
      <point x="160" y="600" type="line"/>
      <point x="189" y="608"/>
      <point x="242" y="610"/>
      <point x="275" y="610" type="curve" smooth="yes"/>
      <point x="344" y="610"/>
      <point x="380" y="576"/>
      <point x="380" y="504" type="curve" smooth="yes"/>
      <point x="380" y="452"/>
      <point x="376" y="405"/>
      <point x="368" y="359" type="curve"/>
      <point x="374" y="369" type="line"/>
      <point x="176" y="369" type="line"/>
      <point x="176" y="308" type="line"/>
      <point x="312" y="308" type="line" smooth="yes"/>
      <point x="376" y="308"/>
      <point x="400" y="282"/>
      <point x="400" y="223" type="curve" smooth="yes"/>
      <point x="400" y="70" type="line"/>
      <point x="418" y="103" type="line"/>
      <point x="396" y="80"/>
      <point x="355" y="68"/>
      <point x="303" y="68" type="curve" smooth="yes"/>
      <point x="255" y="68"/>
      <point x="210" y="81"/>
      <point x="182" y="111" type="curve"/>
      <point x="146" y="69" type="line"/>
      <point x="181" y="20"/>
      <point x="245" y="-11"/>
    </contour>
    <contour>
      <point x="132" y="-5" type="line"/>
      <point x="186" y="79" type="line"/>
      <point x="187" y="635" type="line"/>
      <point x="295" y="690" type="line"/>
      <point x="5" y="680" type="line"/>
      <point x="5" y="633" type="line"/>
      <point x="90" y="613" type="line"/>
      <point x="90" y="0" type="line"/>
    </contour>
  </outline>
</glyph>
<glyph name="C" format="2">
  <advance width="510"/>
  <unicode hex="0043"/>
  <outline>
    <contour>
      <point x="273" y="-10" type="curve" smooth="yes"/>
      <point x="293" y="-10"/>
      <point x="318" y="-8"/>
      <point x="333" y="-7" type="curve"/>
      <point x="458" y="29" type="line"/>
      <point x="458" y="96" type="line"/>
      <point x="413" y="86"/>
      <point x="355" y="75"/>
      <point x="308" y="75" type="curve" smooth="yes"/>
      <point x="233" y="75"/>
      <point x="163" y="113"/>
      <point x="163" y="197" type="curve" smooth="yes"/>
      <point x="163" y="625" type="line"/>
      <point x="147" y="587" type="line"/>
      <point x="172" y="601"/>
      <point x="225" y="608"/>
      <point x="270" y="608" type="curve" smooth="yes"/>
      <point x="314" y="608"/>
      <point x="363" y="602"/>
      <point x="388" y="587" type="curve"/>
      <point x="360" y="635" type="line"/>
      <point x="375" y="457" type="line"/>
      <point x="433" y="457" type="line"/>
      <point x="456" y="645" type="line"/>
      <point x="424" y="674"/>
      <point x="348" y="691"/>
      <point x="281" y="691" type="curve" smooth="yes"/>
      <point x="228" y="691"/>
      <point x="166" y="683"/>
      <point x="139" y="678" type="curve"/>
      <point x="66" y="596" type="line"/>
      <point x="66" y="187" type="line" smooth="yes"/>
      <point x="66" y="48"/>
      <point x="169" y="-10"/>
    </contour>
  </outline>
</glyph>
<glyph name="D" format="2">
  <advance width="576"/>
  <unicode hex="0044"/>
  <outline>
    <contour>
      <point x="324" y="-10" type="curve" smooth="yes"/>
      <point x="364" y="-10"/>
      <point x="408" y="-3"/>
      <point x="436" y="5" type="curve"/>
      <point x="510" y="87" type="line"/>
      <point x="510" y="519" type="line" smooth="yes"/>
      <point x="510" y="641"/>
      <point x="424" y="690"/>
      <point x="316" y="690" type="curve" smooth="yes"/>
      <point x="273" y="690"/>
      <point x="236" y="683"/>
      <point x="215" y="678" type="curve"/>
      <point x="167" y="610" type="line"/>
      <point x="186" y="601" type="line"/>
      <point x="212" y="606"/>
      <point x="260" y="608"/>
      <point x="298" y="608" type="curve" smooth="yes"/>
      <point x="362" y="608"/>
      <point x="411" y="580"/>
      <point x="411" y="510" type="curve"/>
      <point x="411" y="66" type="line"/>
      <point x="426" y="85" type="line"/>
      <point x="414" y="81"/>
      <point x="363" y="69"/>
      <point x="314" y="69" type="curve" smooth="yes"/>
      <point x="257" y="69"/>
      <point x="202" y="100"/>
      <point x="190" y="114" type="curve"/>
      <point x="161" y="65" type="line"/>
      <point x="198" y="24"/>
      <point x="257" y="-10"/>
    </contour>
    <contour>
      <point x="140" y="-5" type="line"/>
      <point x="197" y="80" type="line"/>
      <point x="197" y="635" type="line"/>
      <point x="320" y="690" type="line"/>
      <point x="14" y="680" type="line"/>
      <point x="14" y="633" type="line"/>
      <point x="98" y="613" type="line"/>
      <point x="98" y="0" type="line"/>
    </contour>
  </outline>
</glyph>
<glyph name="E" format="2">
  <advance width="528"/>
  <unicode hex="0045"/>
  <anchor x="471" y="10" name="ogonek"/>
  <anchor x="265" y="680" name="top"/>
  <anchor x="35" y="680" name="topleft"/>
  <anchor x="265" y="0" name="bottom"/>
  <outline>
    <contour>
      <point x="30" y="0" type="line"/>
      <point x="213" y="0" type="line"/>
      <point x="213" y="680" type="line"/>
      <point x="30" y="680" type="line"/>
      <point x="30" y="633" type="line"/>
      <point x="115" y="613" type="line"/>
      <point x="115" y="68" type="line"/>
      <point x="30" y="48" type="line"/>
    </contour>
    <contour>
      <point x="152" y="0" type="line"/>
      <point x="461" y="0" type="line"/>
      <point x="475" y="20" type="line"/>
      <point x="481" y="187" type="line"/>
      <point x="428" y="187" type="line"/>
      <point x="400" y="68" type="line"/>
      <point x="152" y="68" type="line"/>
    </contour>
    <contour>
      <point x="209" y="299" type="line"/>
      <point x="396" y="299" type="line"/>
      <point x="401" y="366" type="line"/>
      <point x="209" y="366" type="line"/>
    </contour>
    <contour>
      <point x="420" y="503" type="line"/>
      <point x="473" y="503" type="line"/>
      <point x="473" y="670" type="line"/>
      <point x="452" y="690" type="line"/>
      <point x="37" y="680" type="line"/>
      <point x="152" y="612" type="line"/>
      <point x="390" y="612" type="line"/>
    </contour>
  </outline>
</glyph>
<glyph name="F" format="2">
  <advance width="479"/>
  <unicode hex="0046"/>
  <outline>
    <contour>
      <point x="30" y="0" type="line"/>
      <point x="326" y="0" type="line"/>
      <point x="326" y="48" type="line"/>
      <point x="213" y="68" type="line"/>
      <point x="213" y="680" type="line"/>
      <point x="32" y="680" type="line"/>
      <point x="30" y="633" type="line"/>
      <point x="115" y="613" type="line"/>
      <point x="115" y="68" type="line"/>
      <point x="30" y="48" type="line"/>
    </contour>
    <contour>
      <point x="209" y="296" type="line"/>
      <point x="419" y="296" type="line"/>
      <point x="424" y="361" type="line"/>
      <point x="209" y="361" type="line"/>
    </contour>
    <contour>
      <point x="423" y="503" type="line"/>
      <point x="476" y="503" type="line"/>
      <point x="476" y="670" type="line"/>
      <point x="456" y="690" type="line"/>
      <point x="34" y="680" type="line"/>
      <point x="152" y="612" type="line"/>
      <point x="395" y="612" type="line"/>
    </contour>
  </outline>
</glyph>
<glyph name="G" format="2">
  <advance width="515"/>
  <unicode hex="0047"/>
  <outline>
    <contour>
      <point x="259" y="-10" type="curve" smooth="yes"/>
      <point x="294" y="-10"/>
      <point x="326" y="-8"/>
      <point x="344" y="-4" type="curve"/>
      <point x="390" y="48" type="line"/>
      <point x="423" y="-6" type="line"/>
      <point x="475" y="2" type="line"/>
      <point x="475" y="316" type="line"/>
      <point x="445" y="346" type="line"/>
      <point x="296" y="336" type="line"/>
      <point x="295" y="288" type="line"/>
      <point x="383" y="276" type="line"/>
      <point x="384" y="63" type="line"/>
      <point x="400" y="88" type="line"/>
      <point x="373" y="75"/>
      <point x="333" y="72"/>
      <point x="282" y="72" type="curve" smooth="yes"/>
      <point x="205" y="72"/>
      <point x="163" y="109"/>
      <point x="163" y="196" type="curve" smooth="yes"/>
      <point x="163" y="627" type="line"/>
      <point x="147" y="585" type="line"/>
      <point x="179" y="601"/>
      <point x="225" y="607"/>
      <point x="274" y="607" type="curve" smooth="yes"/>
      <point x="320" y="607"/>
      <point x="373" y="601"/>
      <point x="404" y="586" type="curve"/>
      <point x="374" y="639" type="line"/>
      <point x="393" y="464" type="line"/>
      <point x="451" y="464" type="line"/>
      <point x="470" y="644" type="line"/>
      <point x="440" y="668"/>
      <point x="367" y="690"/>
      <point x="280" y="690" type="curve" smooth="yes"/>
      <point x="223" y="690"/>
      <point x="172" y="684"/>
      <point x="137" y="675" type="curve"/>
      <point x="66" y="594" type="line"/>
      <point x="66" y="183" type="line" smooth="yes"/>
      <point x="66" y="52"/>
      <point x="149" y="-10"/>
    </contour>
  </outline>
</glyph>
<glyph name="H" format="2">
  <advance width="656"/>
  <unicode hex="0048"/>
  <outline>
    <contour>
      <point x="192" y="304" type="line"/>
      <point x="463" y="304" type="line"/>
      <point x="463" y="371" type="line"/>
      <point x="192" y="371" type="line"/>
    </contour>
    <contour>
      <point x="30" y="0" type="line"/>
      <point x="278" y="0" type="line"/>
      <point x="278" y="48" type="line"/>
      <point x="211" y="68" type="line"/>
      <point x="211" y="613" type="line"/>
      <point x="278" y="633" type="line"/>
      <point x="278" y="680" type="line"/>
      <point x="30" y="680" type="line"/>
      <point x="30" y="633" type="line"/>
      <point x="115" y="613" type="line"/>
      <point x="115" y="68" type="line"/>
      <point x="30" y="48" type="line"/>
    </contour>
    <contour>
      <point x="379" y="0" type="line"/>
      <point x="626" y="0" type="line"/>
      <point x="626" y="48" type="line"/>
      <point x="542" y="68" type="line"/>
      <point x="542" y="613" type="line"/>
      <point x="626" y="633" type="line"/>
      <point x="626" y="680" type="line"/>
      <point x="379" y="680" type="line"/>
      <point x="379" y="633" type="line"/>
      <point x="445" y="613" type="line"/>
      <point x="445" y="68" type="line"/>
      <point x="379" y="48" type="line"/>
    </contour>
  </outline>
</glyph>
<glyph name="I" format="2">
  <advance width="328"/>
  <unicode hex="0049"/>
  <anchor x="294" y="10" name="ogonek"/>
  <anchor x="164" y="680" name="top"/>
  <anchor x="21" y="680" name="topleft"/>
  <anchor x="164" y="0" name="bottom"/>
  <outline>
    <contour>
      <point x="30" y="0" type="line"/>
      <point x="298" y="0" type="line"/>
      <point x="298" y="48" type="line"/>
      <point x="213" y="68" type="line"/>
      <point x="213" y="613" type="line"/>
      <point x="298" y="633" type="line"/>
      <point x="298" y="680" type="line"/>
      <point x="30" y="680" type="line"/>
      <point x="30" y="633" type="line"/>
      <point x="115" y="613" type="line"/>
      <point x="115" y="68" type="line"/>
      <point x="30" y="48" type="line"/>
    </contour>
  </outline>
</glyph>
<glyph name="J" format="2">
  <advance width="371"/>
  <unicode hex="004A"/>
  <outline>
    <contour>
      <point x="180" y="613" type="line"/>
      <point x="180" y="173" type="line" smooth="yes"/>
      <point x="180" y="94"/>
      <point x="157" y="66"/>
      <point x="101" y="66" type="curve" smooth="yes"/>
      <point x="79" y="66"/>
      <point x="52" y="67"/>
      <point x="20" y="71" type="curve"/>
      <point x="20" y="14" type="line"/>
      <point x="83" y="-6" type="line"/>
      <point x="98" y="-8"/>
      <point x="120" y="-10"/>
      <point x="134" y="-10" type="curve" smooth="yes"/>
      <point x="246" y="-10"/>
      <point x="277" y="81"/>
      <point x="277" y="169" type="curve" smooth="yes"/>
      <point x="277" y="613" type="line"/>
      <point x="361" y="633" type="line"/>
      <point x="361" y="680" type="line"/>
      <point x="84" y="680" type="line"/>
      <point x="84" y="633" type="line"/>
    </contour>
  </outline>
</glyph>
<glyph name="K" format="2">
  <advance width="604"/>
  <unicode hex="004B"/>
  <outline>
    <contour>
      <point x="273" y="680" type="line"/>
      <point x="30" y="680" type="line"/>
      <point x="30" y="633" type="line"/>
      <point x="115" y="613" type="line"/>
      <point x="115" y="68" type="line"/>
      <point x="30" y="48" type="line"/>
      <point x="30" y="0" type="line"/>
      <point x="273" y="0" type="line"/>
      <point x="273" y="48" type="line"/>
      <point x="211" y="68" type="line"/>
      <point x="211" y="613" type="line"/>
      <point x="273" y="633" type="line"/>
    </contour>
    <contour>
      <point x="498" y="-12" type="curve"/>
      <point x="597" y="5" type="line"/>
      <point x="597" y="52" type="line"/>
      <point x="525" y="67" type="line"/>
      <point x="395" y="329" type="line"/>
      <point x="342" y="354" type="line"/>
      <point x="292" y="320" type="line"/>
      <point x="413" y="71" type="line" smooth="yes"/>
      <point x="438" y="18"/>
      <point x="457" y="-2"/>
    </contour>
    <contour>
      <point x="185" y="294" type="line"/>
      <point x="321" y="294" type="line"/>
      <point x="561" y="620" type="line"/>
      <point x="547" y="680" type="line"/>
      <point x="377" y="680" type="line"/>
      <point x="373" y="633" type="line"/>
      <point x="452" y="613" type="line"/>
      <point x="303" y="360" type="line"/>
      <point x="185" y="360" type="line"/>
    </contour>
  </outline>
</glyph>
<glyph name="L" format="2">
  <advance width="512"/>
  <unicode hex="004C"/>
  <outline>
    <contour>
      <point x="102" y="0" type="line"/>
      <point x="466" y="0" type="line"/>
      <point x="486" y="20" type="line"/>
      <point x="486" y="184" type="line"/>
      <point x="435" y="184" type="line"/>
      <point x="405" y="68" type="line"/>
      <point x="152" y="68" type="line"/>
    </contour>
    <contour>
      <point x="297" y="680" type="line"/>
      <point x="30" y="680" type="line"/>
      <point x="30" y="633" type="line"/>
      <point x="115" y="613" type="line"/>
      <point x="115" y="68" type="line"/>
      <point x="30" y="48" type="line"/>
      <point x="30" y="0" type="line"/>
      <point x="213" y="0" type="line"/>
      <point x="213" y="613" type="line"/>
      <point x="297" y="633" type="line"/>
    </contour>
  </outline>
</glyph>
<glyph name="M" format="2">
  <advance width="768"/>
  <unicode hex="004D"/>
  <outline>
    <contour>
      <point x="30" y="0" type="line"/>
      <point x="251" y="0" type="line"/>
      <point x="250" y="48" type="line"/>
      <point x="189" y="69" type="line"/>
      <point x="189" y="593" type="line"/>
      <point x="167" y="561" type="line"/>
      <point x="346" y="79" type="line"/>
      <point x="405" y="87" type="line"/>
      <point x="583" y="573" type="line"/>
      <point x="557" y="571" type="line"/>
      <point x="557" y="67" type="line"/>
      <point x="495" y="48" type="line"/>
      <point x="494" y="0" type="line"/>
      <point x="738" y="0" type="line"/>
      <point x="738" y="48" type="line"/>
      <point x="653" y="68" type="line"/>
      <point x="653" y="613" type="line"/>
      <point x="738" y="633" type="line"/>
      <point x="738" y="680" type="line"/>
      <point x="545" y="680" type="line"/>
      <point x="374" y="190" type="line"/>
      <point x="400" y="185" type="line"/>
      <point x="222" y="681" type="line"/>
      <point x="30" y="680" type="line"/>
      <point x="30" y="634" type="line"/>
      <point x="115" y="614" type="line"/>
      <point x="115" y="70" type="line"/>
      <point x="30" y="48" type="line"/>
    </contour>
  </outline>
</glyph>
<glyph name="N" format="2">
  <advance width="634"/>
  <unicode hex="004E"/>
  <anchor x="321" y="680" name="top"/>
  <anchor x="314" y="0" name="bottom"/>
  <outline>
    <contour>
      <point x="614" y="680" type="line"/>
      <point x="389" y="680" type="line"/>
      <point x="389" y="633" type="line"/>
      <point x="455" y="613" type="line"/>
      <point x="456" y="88" type="line"/>
      <point x="496" y="83" type="line"/>
      <point x="203" y="680" type="line"/>
      <point x="30" y="680" type="line"/>
      <point x="30" y="633" type="line"/>
      <point x="115" y="613" type="line"/>
      <point x="115" y="68" type="line"/>
      <point x="30" y="48" type="line"/>
      <point x="30" y="0" type="line"/>
      <point x="269" y="0" type="line"/>
      <point x="269" y="48" type="line"/>
      <point x="193" y="68" type="line"/>
      <point x="189" y="567" type="line"/>
      <point x="160" y="558" type="line"/>
      <point x="442" y="-7" type="line"/>
      <point x="529" y="0" type="line"/>
      <point x="529" y="613" type="line"/>
      <point x="614" y="633" type="line"/>
    </contour>
  </outline>
</glyph>
<glyph name="O" format="2">
  <advance width="543"/>
  <unicode hex="004F"/>
  <anchor x="272" y="0" name="bottom"/>
  <anchor x="480" y="10" name="ogonek"/>
  <anchor x="272" y="680" name="top"/>
  <anchor x="512" y="680" name="topright"/>
  <anchor x="31" y="680" name="topleft"/>
  <anchor x="272" y="340" name="center"/>
  <outline>
    <contour>
      <point x="263" y="-10" type="curve" smooth="yes"/>
      <point x="324" y="-10"/>
      <point x="381" y="-3"/>
      <point x="403" y="5" type="curve"/>
      <point x="477" y="87" type="line"/>
      <point x="476" y="523" type="line" smooth="yes"/>
      <point x="476" y="644"/>
      <point x="398" y="690"/>
      <point x="281" y="690" type="curve" smooth="yes"/>
      <point x="222" y="690"/>
      <point x="166" y="683"/>
      <point x="140" y="676" type="curve"/>
      <point x="66" y="594" type="line"/>
      <point x="67" y="169" type="line" smooth="yes"/>
      <point x="67" y="46"/>
      <point x="143" y="-10"/>
    </contour>
    <contour>
      <point x="380" y="70" type="line"/>
      <point x="392" y="88" type="line"/>
      <point x="369" y="78"/>
      <point x="325" y="71"/>
      <point x="276" y="71" type="curve" smooth="yes"/>
      <point x="203" y="71"/>
      <point x="163" y="98"/>
      <point x="163" y="178" type="curve" smooth="yes"/>
      <point x="163" y="610" type="line"/>
      <point x="151" y="591" type="line"/>
      <point x="175" y="601"/>
      <point x="215" y="608"/>
      <point x="262" y="608" type="curve" smooth="yes"/>
      <point x="336" y="608"/>
      <point x="380" y="588"/>
      <point x="380" y="516" type="curve" smooth="yes"/>
    </contour>
  </outline>
</glyph>
<glyph name="P" format="2">
  <advance width="555"/>
  <unicode hex="0050"/>
  <outline>
    <contour>
      <point x="30" y="0" type="line"/>
      <point x="319" y="0" type="line"/>
      <point x="319" y="48" type="line"/>
      <point x="211" y="68" type="line"/>
      <point x="211" y="626" type="line"/>
      <point x="318" y="690" type="line"/>
      <point x="30" y="680" type="line"/>
      <point x="30" y="633" type="line"/>
      <point x="115" y="613" type="line"/>
      <point x="115" y="68" type="line"/>
      <point x="30" y="48" type="line"/>
    </contour>
    <contour>
      <point x="334" y="209" type="curve" smooth="yes"/>
      <point x="373" y="209"/>
      <point x="408" y="214"/>
      <point x="432" y="223" type="curve"/>
      <point x="506" y="303" type="line"/>
      <point x="505" y="520" type="line" smooth="yes"/>
      <point x="504" y="636"/>
      <point x="422" y="690"/>
      <point x="321" y="690" type="curve" smooth="yes"/>
      <point x="276" y="690"/>
      <point x="227" y="669"/>
      <point x="199" y="659" type="curve"/>
      <point x="199" y="602" type="line"/>
      <point x="221" y="606"/>
      <point x="260" y="609"/>
      <point x="308" y="609" type="curve" smooth="yes"/>
      <point x="366" y="609"/>
      <point x="407" y="576"/>
      <point x="407" y="508" type="curve" smooth="yes"/>
      <point x="407" y="283" type="line"/>
      <point x="421" y="301" type="line"/>
      <point x="395" y="291"/>
      <point x="356" y="285"/>
      <point x="321" y="285" type="curve" smooth="yes"/>
      <point x="271" y="285"/>
      <point x="233" y="287"/>
      <point x="197" y="298" type="curve"/>
      <point x="176" y="235" type="line"/>
      <point x="210" y="223"/>
      <point x="270" y="209"/>
    </contour>
  </outline>
</glyph>
<glyph name="Q" format="2">
  <advance width="544"/>
  <unicode hex="0051"/>
  <outline>
    <contour>
      <point x="376" y="-171" type="curve" smooth="yes"/>
      <point x="400" y="-171"/>
      <point x="426" y="-158"/>
      <point x="487" y="-137" type="curve"/>
      <point x="483" y="-88" type="line"/>
      <point x="399" y="-88" type="line"/>
      <point x="229" y="-10" type="line"/>
      <point x="193" y="7" type="line"/>
      <point x="161" y="-43" type="line"/>
      <point x="236" y="-105"/>
      <point x="341" y="-171"/>
    </contour>
    <component base="O"/>
  </outline>
</glyph>
<glyph name="R" format="2">
  <advance width="600"/>
  <unicode hex="0052"/>
  <outline>
    <contour>
      <point x="30" y="0" type="line"/>
      <point x="273" y="0" type="line"/>
      <point x="273" y="48" type="line"/>
      <point x="211" y="68" type="line"/>
      <point x="211" y="626" type="line"/>
      <point x="309" y="690" type="line"/>
      <point x="30" y="680" type="line"/>
      <point x="30" y="633" type="line"/>
      <point x="115" y="613" type="line"/>
      <point x="115" y="68" type="line"/>
      <point x="30" y="48" type="line"/>
    </contour>
    <contour>
      <point x="488" y="-12" type="curve"/>
      <point x="590" y="5" type="line"/>
      <point x="590" y="52" type="line"/>
      <point x="518" y="67" type="line"/>
      <point x="444" y="265" type="line"/>
      <point x="395" y="290" type="line"/>
      <point x="340" y="271" type="line"/>
      <point x="409" y="70" type="line" smooth="yes"/>
      <point x="426" y="22"/>
      <point x="440" y="1"/>
    </contour>
    <contour>
      <point x="184" y="266" type="line"/>
      <point x="369" y="266" type="line"/>
      <point x="424" y="287" type="line"/>
      <point x="499" y="350" type="line"/>
      <point x="506" y="396"/>
      <point x="510" y="438"/>
      <point x="510" y="494" type="curve" smooth="yes"/>
      <point x="510" y="622"/>
      <point x="441" y="690"/>
      <point x="312" y="690" type="curve" smooth="yes"/>
      <point x="297" y="690"/>
      <point x="217" y="670"/>
      <point x="181" y="656" type="curve"/>
      <point x="181" y="599" type="line"/>
      <point x="207" y="606"/>
      <point x="254" y="608"/>
      <point x="304" y="608" type="curve" smooth="yes"/>
      <point x="380" y="608"/>
      <point x="413" y="562"/>
      <point x="413" y="478" type="curve" smooth="yes"/>
      <point x="413" y="422"/>
      <point x="408" y="369"/>
      <point x="399" y="323" type="curve"/>
      <point x="428" y="342" type="line"/>
      <point x="400" y="334"/>
      <point x="338" y="331"/>
      <point x="278" y="331" type="curve" smooth="yes"/>
      <point x="198" y="331" type="line"/>
    </contour>
  </outline>
</glyph>
<glyph name="S" format="2">
  <advance width="504"/>
  <unicode hex="0053"/>
  <outline>
    <contour>
      <point x="244" y="-10" type="curve" smooth="yes"/>
      <point x="317" y="-10"/>
      <point x="373" y="12"/>
      <point x="406" y="42" type="curve"/>
      <point x="461" y="113" type="line"/>
      <point x="461" y="164" type="line" smooth="yes"/>
      <point x="461" y="288"/>
      <point x="370" y="343"/>
      <point x="277" y="384" type="curve" smooth="yes"/>
      <point x="206" y="415"/>
      <point x="141" y="443"/>
      <point x="141" y="533" type="curve" smooth="yes"/>
      <point x="141" y="572" type="line"/>
      <point x="131" y="536" type="line"/>
      <point x="148" y="581"/>
      <point x="199" y="611"/>
      <point x="263" y="611" type="curve" smooth="yes"/>
      <point x="314" y="611"/>
      <point x="346" y="603"/>
      <point x="381" y="581" type="curve"/>
      <point x="357" y="617" type="line"/>
      <point x="376" y="474" type="line"/>
      <point x="431" y="474" type="line"/>
      <point x="450" y="636" type="line"/>
      <point x="417" y="665"/>
      <point x="354" y="689"/>
      <point x="269" y="689" type="curve" smooth="yes"/>
      <point x="188" y="689"/>
      <point x="125" y="658"/>
      <point x="89" y="615" type="curve"/>
      <point x="46" y="556" type="line"/>
      <point x="46" y="500" type="line" smooth="yes"/>
      <point x="46" y="399"/>
      <point x="127" y="351"/>
      <point x="206" y="316" type="curve" smooth="yes"/>
      <point x="292" y="278"/>
      <point x="366" y="240"/>
      <point x="366" y="131" type="curve" smooth="yes"/>
      <point x="366" y="73" type="line"/>
      <point x="380" y="114" type="line"/>
      <point x="354" y="88"/>
      <point x="306" y="68"/>
      <point x="244" y="68" type="curve" smooth="yes"/>
      <point x="178" y="68"/>
      <point x="136" y="81"/>
      <point x="98" y="108" type="curve"/>
      <point x="136" y="66" type="line"/>
      <point x="118" y="206" type="line"/>
      <point x="63" y="206" type="line"/>
      <point x="43" y="44" type="line"/>
      <point x="91" y="9"/>
      <point x="161" y="-10"/>
    </contour>
  </outline>
</glyph>
<glyph name="T" format="2">
  <advance width="566"/>
  <unicode hex="0054"/>
  <outline>
    <contour>
      <point x="135" y="0" type="line"/>
      <point x="430" y="0" type="line"/>
      <point x="430" y="44" type="line"/>
      <point x="332" y="68" type="line"/>
      <point x="332" y="612" type="line"/>
      <point x="454" y="612" type="line"/>
      <point x="481" y="483" type="line"/>
      <point x="532" y="483" type="line"/>
      <point x="534" y="665" type="line"/>
      <point x="514" y="685" type="line"/>
      <point x="283" y="680" type="line"/>
      <point x="52" y="685" type="line"/>
      <point x="32" y="665" type="line"/>
      <point x="33" y="483" type="line"/>
      <point x="84" y="483" type="line"/>
      <point x="111" y="612" type="line"/>
      <point x="233" y="612" type="line"/>
      <point x="233" y="68" type="line"/>
      <point x="135" y="44" type="line"/>
    </contour>
  </outline>
</glyph>
<glyph name="U" format="2">
  <advance width="617"/>
  <unicode hex="0055"/>
  <anchor x="527" y="10" name="ogonek"/>
  <anchor x="315" y="680" name="top"/>
  <anchor x="564" y="680" name="topright"/>
  <anchor x="298" y="0" name="bottom"/>
  <outline>
    <contour>
      <point x="312" y="-10" type="curve" smooth="yes"/>
      <point x="366" y="-10"/>
      <point x="425" y="0"/>
      <point x="448" y="8" type="curve"/>
      <point x="522" y="87" type="line"/>
      <point x="521" y="617" type="line"/>
      <point x="604" y="633" type="line"/>
      <point x="604" y="680" type="line"/>
      <point x="364" y="680" type="line"/>
      <point x="364" y="633" type="line"/>
      <point x="430" y="616" type="line"/>
      <point x="430" y="92" type="line"/>
      <point x="408" y="79"/>
      <point x="358" y="71"/>
      <point x="322" y="71" type="curve" smooth="yes"/>
      <point x="253" y="71"/>
      <point x="205" y="103"/>
      <point x="205" y="176" type="curve" smooth="yes"/>
      <point x="205" y="680" type="line"/>
      <point x="23" y="680" type="line"/>
      <point x="23" y="633" type="line"/>
      <point x="108" y="619" type="line"/>
      <point x="108" y="180" type="line" smooth="yes"/>
      <point x="108" y="53"/>
      <point x="186" y="-10"/>
    </contour>
  </outline>
</glyph>
<glyph name="V" format="2">
  <advance width="646"/>
  <unicode hex="0056"/>
  <outline>
    <contour>
      <point x="277" y="-7" type="line"/>
      <point x="385" y="0" type="line"/>
      <point x="561" y="613" type="line"/>
      <point x="641" y="633" type="line"/>
      <point x="641" y="680" type="line"/>
      <point x="399" y="680" type="line"/>
      <point x="399" y="633" type="line"/>
      <point x="481" y="614" type="line"/>
      <point x="335" y="73" type="line"/>
      <point x="306" y="69" type="line"/>
      <point x="271" y="17" type="line"/>
    </contour>
    <contour>
      <point x="271" y="17" type="line"/>
      <point x="360" y="34" type="line"/>
      <point x="203" y="616" type="line"/>
      <point x="276" y="633" type="line"/>
      <point x="276" y="680" type="line"/>
      <point x="18" y="680" type="line"/>
      <point x="18" y="633" type="line"/>
      <point x="98" y="613" type="line"/>
    </contour>
  </outline>
</glyph>
<glyph name="W" format="2">
  <advance width="945"/>
  <unicode hex="0057"/>
  <outline>
    <contour>
      <point x="18" y="633" type="line"/>
      <point x="98" y="613" type="line"/>
      <point x="250" y="-5" type="line"/>
      <point x="363" y="0" type="line"/>
      <point x="495" y="588" type="line"/>
      <point x="458" y="594" type="line"/>
      <point x="592" y="-5" type="line"/>
      <point x="707" y="0" type="line"/>
      <point x="860" y="613" type="line"/>
      <point x="939" y="633" type="line"/>
      <point x="939" y="680" type="line"/>
      <point x="697" y="680" type="line"/>
      <point x="697" y="633" type="line"/>
      <point x="779" y="614" type="line"/>
      <point x="645" y="55" type="line"/>
      <point x="673" y="55" type="line"/>
      <point x="529" y="683" type="line"/>
      <point x="440" y="680" type="line"/>
      <point x="299" y="55" type="line"/>
      <point x="325" y="58" type="line"/>
      <point x="199" y="622" type="line"/>
      <point x="271" y="636" type="line"/>
      <point x="271" y="680" type="line"/>
      <point x="18" y="680" type="line"/>
    </contour>
  </outline>
</glyph>
<glyph name="X" format="2">
  <advance width="664"/>
  <unicode hex="0058"/>
  <outline>
    <contour>
      <point x="283" y="368" type="line"/>
      <point x="101" y="68" type="line"/>
      <point x="22" y="48" type="line"/>
      <point x="22" y="0" type="line"/>
      <point x="269" y="0" type="line"/>
      <point x="269" y="48" type="line"/>
      <point x="192" y="68" type="line"/>
      <point x="340" y="327" type="line"/>
    </contour>
    <contour>
      <point x="322" y="371" type="line"/>
      <point x="362" y="309" type="line"/>
      <point x="552" y="613" type="line"/>
      <point x="632" y="633" type="line"/>
      <point x="632" y="680" type="line"/>
      <point x="382" y="680" type="line"/>
      <point x="382" y="633" type="line"/>
      <point x="462" y="615" type="line"/>
    </contour>
    <contour>
      <point x="32" y="633" type="line"/>
      <point x="118" y="613" type="line"/>
      <point x="284" y="325" type="line"/>
      <point x="303" y="319" type="line"/>
      <point x="478" y="-9" type="line"/>
      <point x="643" y="0" type="line"/>
      <point x="643" y="49" type="line"/>
      <point x="559" y="69" type="line"/>
      <point x="378" y="374" type="line"/>
      <point x="359" y="380" type="line"/>
      <point x="199" y="688" type="line"/>
      <point x="32" y="680" type="line"/>
    </contour>
  </outline>
</glyph>
<glyph name="Y" format="2">
  <advance width="659"/>
  <unicode hex="0059"/>
  <outline>
    <contour>
      <point x="191" y="0" type="line"/>
      <point x="483" y="0" type="line"/>
      <point x="483" y="44" type="line"/>
      <point x="385" y="68" type="line"/>
      <point x="385" y="236" type="line"/>
      <point x="575" y="613" type="line"/>
      <point x="654" y="633" type="line"/>
      <point x="654" y="680" type="line"/>
      <point x="410" y="680" type="line"/>
      <point x="410" y="633" type="line"/>
      <point x="489" y="614" type="line"/>
      <point x="328" y="277" type="line"/>
      <point x="359" y="277" type="line"/>
      <point x="214" y="613" type="line"/>
      <point x="289" y="633" type="line"/>
      <point x="289" y="680" type="line"/>
      <point x="18" y="680" type="line"/>
      <point x="18" y="633" type="line"/>
      <point x="100" y="613" type="line"/>
      <point x="289" y="236" type="line"/>
      <point x="289" y="68" type="line"/>
      <point x="191" y="44" type="line"/>
    </contour>
  </outline>
</glyph>
<glyph name="Z" format="2">
  <advance width="592"/>
  <unicode hex="005A"/>
  <outline>
    <contour>
      <point x="57" y="55" type="line"/>
      <point x="84" y="0" type="line"/>
      <point x="434" y="0" type="line"/>
      <point x="507" y="-2" type="line"/>
      <point x="537" y="28" type="line"/>
      <point x="536" y="223" type="line"/>
      <point x="485" y="223" type="line"/>
      <point x="443" y="35" type="line"/>
      <point x="495" y="78" type="line"/>
      <point x="143" y="78" type="line"/>
      <point x="174" y="53" type="line"/>
      <point x="534" y="626" type="line"/>
      <point x="513" y="680" type="line"/>
      <point x="102" y="685" type="line"/>
      <point x="72" y="655" type="line"/>
      <point x="74" y="460" type="line"/>
      <point x="125" y="460" type="line"/>
      <point x="165" y="649" type="line"/>
      <point x="115" y="606" type="line"/>
      <point x="442" y="606" type="line"/>
      <point x="421" y="631" type="line"/>
    </contour>
  </outline>
</glyph>
<glyph name="a" format="2">
  <advance width="492"/>
  <unicode hex="0061"/>
  <anchor x="443" y="10" name="ogonek"/>
  <anchor x="247" y="0" name="bottom"/>
  <anchor x="240" y="540" name="top"/>
  <outline>
    <contour>
      <point x="383" y="-10" type="curve"/>
      <point x="477" y="14" type="line"/>
      <point x="477" y="58" type="line"/>
      <point x="404" y="72" type="line"/>
      <point x="405" y="432" type="line"/>
      <point x="398" y="508"/>
      <point x="330" y="550"/>
      <point x="249" y="550" type="curve" smooth="yes"/>
      <point x="201" y="550"/>
      <point x="164" y="539"/>
      <point x="135" y="529" type="curve"/>
      <point x="59" y="467" type="line"/>
      <point x="80" y="426" type="line"/>
      <point x="121" y="447"/>
      <point x="176" y="463"/>
      <point x="227" y="463" type="curve" smooth="yes"/>
      <point x="271" y="463"/>
      <point x="303" y="453"/>
      <point x="323" y="428" type="curve"/>
      <point x="310" y="488" type="line"/>
      <point x="309" y="82" type="line"/>
      <point x="309" y="31"/>
      <point x="335" y="-2"/>
    </contour>
    <contour>
      <point x="192" y="-10" type="curve" smooth="yes"/>
      <point x="224" y="-10"/>
      <point x="249" y="-4"/>
      <point x="268" y="6" type="curve"/>
      <point x="329" y="85" type="line"/>
      <point x="317" y="116" type="line"/>
      <point x="291" y="89"/>
      <point x="264" y="68"/>
      <point x="219" y="68" type="curve" smooth="yes"/>
      <point x="169" y="68"/>
      <point x="143" y="102"/>
      <point x="143" y="163" type="curve" smooth="yes"/>
      <point x="143" y="184"/>
      <point x="144" y="201"/>
      <point x="149" y="220" type="curve"/>
      <point x="327" y="232" type="line"/>
      <point x="333" y="286" type="line"/>
      <point x="66" y="265" type="line"/>
      <point x="57" y="236"/>
      <point x="50" y="196"/>
      <point x="50" y="158" type="curve" smooth="yes"/>
      <point x="50" y="49"/>
      <point x="108" y="-10"/>
    </contour>
  </outline>
</glyph>
<glyph name="b" format="2">
  <advance width="535"/>
  <unicode hex="0062"/>
  <outline>
    <contour>
      <point x="299" y="-9" type="curve" smooth="yes"/>
      <point x="342" y="-9"/>
      <point x="369" y="-1"/>
      <point x="390" y="12" type="curve"/>
      <point x="456" y="94" type="line"/>
      <point x="461" y="195"/>
      <point x="462" y="274"/>
      <point x="462" y="384" type="curve" smooth="yes"/>
      <point x="462" y="505"/>
      <point x="400" y="549"/>
      <point x="307" y="549" type="curve" smooth="yes"/>
      <point x="277" y="549"/>
      <point x="247" y="544"/>
      <point x="230" y="539" type="curve"/>
      <point x="169" y="458" type="line"/>
      <point x="169" y="442" type="line"/>
      <point x="204" y="460"/>
      <point x="240" y="468"/>
      <point x="278" y="468" type="curve" smooth="yes"/>
      <point x="339" y="468"/>
      <point x="369" y="440"/>
      <point x="369" y="370" type="curve" smooth="yes"/>
      <point x="369" y="259"/>
      <point x="368" y="178"/>
      <point x="363" y="75" type="curve"/>
      <point x="378" y="94" type="line"/>
      <point x="355" y="76"/>
      <point x="324" y="69"/>
      <point x="286" y="69" type="curve" smooth="yes"/>
      <point x="243" y="69"/>
      <point x="209" y="89"/>
      <point x="185" y="112" type="curve"/>
      <point x="153" y="78" type="line"/>
      <point x="189" y="25"/>
      <point x="232" y="-9"/>
    </contour>
    <contour>
      <point x="142" y="0" type="line"/>
      <point x="195" y="83" type="line"/>
      <point x="195" y="473" type="line"/>
      <point x="193" y="484" type="line"/>
      <point x="193" y="728" type="line"/>
      <point x="173" y="748" type="line"/>
      <point x="20" y="726" type="line"/>
      <point x="20" y="684" type="line"/>
      <point x="100" y="667" type="line"/>
      <point x="100" y="5" type="line"/>
    </contour>
  </outline>
</glyph>
<glyph name="c" format="2">
  <advance width="408"/>
  <unicode hex="0063"/>
  <outline>
    <contour>
      <point x="250" y="-10" type="curve" smooth="yes"/>
      <point x="276" y="-10"/>
      <point x="309" y="-5"/>
      <point x="328" y="3" type="curve"/>
      <point x="399" y="42" type="line"/>
      <point x="391" y="97" type="line"/>
      <point x="362" y="85"/>
      <point x="318" y="70"/>
      <point x="279" y="70" type="curve" smooth="yes"/>
      <point x="203" y="70"/>
      <point x="167" y="108"/>
      <point x="167" y="174" type="curve" smooth="yes"/>
      <point x="167" y="470" type="line"/>
      <point x="154" y="448" type="line"/>
      <point x="181" y="458"/>
      <point x="229" y="464"/>
      <point x="267" y="464" type="curve" smooth="yes"/>
      <point x="308" y="464"/>
      <point x="344" y="460"/>
      <point x="370" y="455" type="curve"/>
      <point x="387" y="537" type="line"/>
      <point x="359" y="545"/>
      <point x="315" y="550"/>
      <point x="271" y="550" type="curve" smooth="yes"/>
      <point x="224" y="550"/>
      <point x="173" y="544"/>
      <point x="144" y="537" type="curve"/>
      <point x="73" y="455" type="line"/>
      <point x="74" y="155" type="line" smooth="yes"/>
      <point x="74" y="42"/>
      <point x="157" y="-10"/>
    </contour>
  </outline>
</glyph>
<glyph name="d" format="2">
  <advance width="505"/>
  <unicode hex="0064"/>
  <outline>
    <contour>
      <point x="225" y="-9" type="curve" smooth="yes"/>
      <point x="288" y="-9"/>
      <point x="344" y="32"/>
      <point x="379" y="76" type="curve"/>
      <point x="349" y="114" type="line"/>
      <point x="326" y="90"/>
      <point x="291" y="69"/>
      <point x="247" y="69" type="curve" smooth="yes"/>
      <point x="211" y="69"/>
      <point x="178" y="81"/>
      <point x="159" y="104" type="curve"/>
      <point x="172" y="69" type="line"/>
      <point x="166" y="171"/>
      <point x="166" y="256"/>
      <point x="166" y="351" type="curve" smooth="yes"/>
      <point x="166" y="441"/>
      <point x="202" y="468"/>
      <point x="261" y="468" type="curve" smooth="yes"/>
      <point x="298" y="468"/>
      <point x="330" y="458"/>
      <point x="355" y="443" type="curve"/>
      <point x="366" y="465" type="line"/>
      <point x="303" y="538" type="line"/>
      <point x="290" y="545"/>
      <point x="262" y="549"/>
      <point x="237" y="549" type="curve" smooth="yes"/>
      <point x="149" y="549"/>
      <point x="73" y="502"/>
      <point x="73" y="375" type="curve" smooth="yes"/>
      <point x="73" y="276"/>
      <point x="73" y="187"/>
      <point x="79" y="81" type="curve"/>
      <point x="149" y="5" type="line"/>
      <point x="172" y="-3"/>
      <point x="191" y="-9"/>
    </contour>
    <contour>
      <point x="393" y="0" type="line"/>
      <point x="435" y="5" type="line"/>
      <point x="435" y="728" type="line"/>
      <point x="415" y="748" type="line"/>
      <point x="263" y="726" type="line"/>
      <point x="263" y="684" type="line"/>
      <point x="342" y="667" type="line"/>
      <point x="342" y="486" type="line"/>
      <point x="340" y="475" type="line"/>
      <point x="340" y="83" type="line"/>
    </contour>
  </outline>
</glyph>
<glyph name="e" format="2">
  <advance width="454"/>
  <unicode hex="0065"/>
  <anchor x="409" y="10" name="ogonek"/>
  <anchor x="227" y="0" name="bottom"/>
  <anchor x="242" y="540" name="top"/>
  <outline>
    <contour>
      <point x="260" y="-10" type="curve" smooth="yes"/>
      <point x="301" y="-10"/>
      <point x="332" y="-1"/>
      <point x="363" y="11" type="curve"/>
      <point x="439" y="68" type="line"/>
      <point x="418" y="110" type="line"/>
      <point x="387" y="94"/>
      <point x="332" y="71"/>
      <point x="280" y="71" type="curve" smooth="yes"/>
      <point x="211" y="71"/>
      <point x="168" y="109"/>
      <point x="168" y="184" type="curve" smooth="yes"/>
      <point x="168" y="467" type="line"/>
      <point x="158" y="452" type="line"/>
      <point x="185" y="463"/>
      <point x="219" y="472"/>
      <point x="258" y="472" type="curve" smooth="yes"/>
      <point x="304" y="472"/>
      <point x="339" y="459"/>
      <point x="361" y="426" type="curve"/>
      <point x="340" y="478" type="line"/>
      <point x="341" y="306" type="line"/>
      <point x="147" y="301" type="line"/>
      <point x="147" y="247" type="line"/>
      <point x="392" y="243" type="line"/>
      <point x="429" y="284" type="line"/>
      <point x="429" y="411" type="line" smooth="yes"/>
      <point x="429" y="493"/>
      <point x="373" y="550"/>
      <point x="265" y="550" type="curve" smooth="yes"/>
      <point x="214" y="550"/>
      <point x="175" y="540"/>
      <point x="143" y="531" type="curve"/>
      <point x="73" y="455" type="line"/>
      <point x="73" y="181" type="line" smooth="yes"/>
      <point x="73" y="48"/>
      <point x="156" y="-10"/>
    </contour>
  </outline>
</glyph>
<glyph name="f" format="2">
  <advance width="357"/>
  <unicode hex="0066"/>
  <outline>
    <contour>
      <point x="136" y="-10" type="line"/>
      <point x="210" y="0" type="line"/>
      <point x="210" y="440" type="line"/>
      <point x="208" y="460" type="line"/>
      <point x="203" y="668" type="line"/>
      <point x="196" y="643" type="line"/>
      <point x="219" y="653"/>
      <point x="257" y="661"/>
      <point x="293" y="661" type="curve" smooth="yes"/>
      <point x="320" y="661"/>
      <point x="348" y="657"/>
      <point x="368" y="652" type="curve"/>
      <point x="387" y="734" type="line"/>
      <point x="365" y="740"/>
      <point x="336" y="745"/>
      <point x="303" y="745" type="curve" smooth="yes"/>
      <point x="253" y="745"/>
      <point x="212" y="738"/>
      <point x="186" y="731" type="curve"/>
      <point x="115" y="650" type="line"/>
      <point x="116" y="10" type="line"/>
    </contour>
    <contour>
      <point x="332" y="413" type="line"/>
      <point x="357" y="431" type="line"/>
      <point x="357" y="484" type="line"/>
      <point x="54" y="476" type="line"/>
      <point x="40" y="463" type="line"/>
      <point x="43" y="418" type="line"/>
    </contour>
  </outline>
</glyph>
<glyph name="g" format="2">
  <advance width="486"/>
  <unicode hex="0067"/>
  <outline>
    <contour>
      <point x="249" y="58" type="curve" smooth="yes"/>
      <point x="301" y="58"/>
      <point x="341" y="64"/>
      <point x="362" y="72" type="curve"/>
      <point x="432" y="154" type="line"/>
      <point x="431" y="550" type="line"/>
      <point x="391" y="550" type="line"/>
      <point x="338" y="460" type="line"/>
      <point x="338" y="130" type="line"/>
      <point x="350" y="148" type="line"/>
      <point x="328" y="137"/>
      <point x="305" y="132"/>
      <point x="259" y="132" type="curve" smooth="yes"/>
      <point x="191" y="132"/>
      <point x="163" y="165"/>
      <point x="163" y="234" type="curve" smooth="yes"/>
      <point x="163" y="474" type="line"/>
      <point x="149" y="455" type="line"/>
      <point x="178" y="468"/>
      <point x="207" y="474"/>
      <point x="246" y="474" type="curve" smooth="yes"/>
      <point x="302" y="474"/>
      <point x="343" y="448"/>
      <point x="354" y="437" type="curve"/>
      <point x="386" y="471" type="line"/>
      <point x="354" y="516"/>
      <point x="302" y="550"/>
      <point x="239" y="550" type="curve" smooth="yes"/>
      <point x="191" y="550"/>
      <point x="158" y="543"/>
      <point x="141" y="536" type="curve"/>
      <point x="70" y="453" type="line"/>
      <point x="70" y="233" type="line" smooth="yes"/>
      <point x="70" y="113"/>
      <point x="137" y="58"/>
    </contour>
    <contour>
      <point x="403" y="-202" type="line"/>
      <point x="447" y="-200" type="line"/>
      <point x="467" y="-128" type="line"/>
      <point x="455" y="-91"/>
      <point x="423" y="-65"/>
      <point x="367" y="-65" type="curve" smooth="yes"/>
      <point x="115" y="-66" type="line"/>
      <point x="150" y="-83" type="line"/>
      <point x="145" y="-68" type="line"/>
      <point x="150" y="-12"/>
      <point x="169" y="44"/>
      <point x="187" y="84" type="curve"/>
      <point x="150" y="98" type="line"/>
      <point x="64" y="-32" type="line"/>
      <point x="56" y="-48"/>
      <point x="53" y="-61"/>
      <point x="53" y="-79" type="curve" smooth="yes"/>
      <point x="53" y="-114"/>
      <point x="71" y="-142"/>
      <point x="107" y="-154" type="curve"/>
      <point x="380" y="-154" type="line"/>
    </contour>
  </outline>
</glyph>
<glyph name="h" format="2">
  <advance width="556"/>
  <unicode hex="0068"/>
  <outline>
    <contour>
      <point x="432" y="-10" type="curve"/>
      <point x="541" y="14" type="line"/>
      <point x="541" y="58" type="line"/>
      <point x="461" y="72" type="line"/>
      <point x="461" y="426" type="line" smooth="yes"/>
      <point x="461" y="505"/>
      <point x="407" y="550"/>
      <point x="326" y="550" type="curve" smooth="yes"/>
      <point x="295" y="550"/>
      <point x="270" y="545"/>
      <point x="248" y="538" type="curve"/>
      <point x="187" y="476" type="line"/>
      <point x="181" y="422" type="line"/>
      <point x="205" y="446"/>
      <point x="253" y="462"/>
      <point x="293" y="462" type="curve" smooth="yes"/>
      <point x="323" y="462"/>
      <point x="349" y="456"/>
      <point x="368" y="440" type="curve"/>
      <point x="368" y="95" type="line" smooth="yes"/>
      <point x="368" y="42"/>
      <point x="388" y="5"/>
    </contour>
    <contour>
      <point x="120" y="-7" type="line"/>
      <point x="195" y="0" type="line"/>
      <point x="195" y="460" type="line"/>
      <point x="193" y="471" type="line"/>
      <point x="193" y="730" type="line"/>
      <point x="173" y="750" type="line"/>
      <point x="20" y="728" type="line"/>
      <point x="20" y="686" type="line"/>
      <point x="100" y="669" type="line"/>
      <point x="100" y="14" type="line"/>
    </contour>
  </outline>
</glyph>
<glyph name="j" format="2">
  <advance width="271"/>
  <unicode hex="006A"/>
  <outline>
    <contour>
      <point x="51" y="-210" type="line"/>
      <point x="124" y="-151"/>
      <point x="195" y="-95"/>
      <point x="195" y="12" type="curve" smooth="yes"/>
      <point x="195" y="528" type="line"/>
      <point x="175" y="548" type="line"/>
      <point x="21" y="526" type="line"/>
      <point x="21" y="484" type="line"/>
      <point x="100" y="467" type="line"/>
      <point x="100" y="-8" type="line"/>
      <point x="87" y="-56"/>
      <point x="38" y="-129"/>
      <point x="9" y="-168" type="curve"/>
    </contour>
    <contour>
      <point x="187" y="643" type="curve"/>
      <point x="200" y="659"/>
      <point x="208" y="683"/>
      <point x="208" y="707" type="curve" smooth="yes"/>
      <point x="208" y="729"/>
      <point x="203" y="746"/>
      <point x="194" y="761" type="curve"/>
      <point x="169" y="763"/>
      <point x="110" y="754"/>
      <point x="92" y="746" type="curve"/>
      <point x="86" y="718"/>
      <point x="88" y="672"/>
      <point x="100" y="650" type="curve"/>
      <point x="127" y="641"/>
      <point x="160" y="640"/>
    </contour>
  </outline>
</glyph>
<glyph name="k" format="2">
  <advance width="520"/>
  <unicode hex="006B"/>
  <outline>
    <contour>
      <point x="356" y="289" type="line"/>
      <point x="307" y="309" type="line"/>
      <point x="271" y="309" type="line"/>
      <point x="257" y="281" type="line"/>
      <point x="344" y="70" type="line" smooth="yes"/>
      <point x="364" y="22"/>
      <point x="382" y="2"/>
      <point x="424" y="-10" type="curve"/>
      <point x="527" y="14" type="line"/>
      <point x="527" y="58" type="line"/>
      <point x="450" y="72" type="line"/>
    </contour>
    <contour>
      <point x="120" y="-10" type="line"/>
      <point x="195" y="0" type="line"/>
      <point x="195" y="730" type="line"/>
      <point x="174" y="750" type="line"/>
      <point x="20" y="731" type="line"/>
      <point x="20" y="689" type="line"/>
      <point x="100" y="672" type="line"/>
      <point x="100" y="10" type="line"/>
    </contour>
    <contour>
      <point x="173" y="155" type="line"/>
      <point x="495" y="494" type="line"/>
      <point x="489" y="540" type="line"/>
      <point x="311" y="540" type="line"/>
      <point x="308" y="497" type="line"/>
      <point x="381" y="477" type="line"/>
      <point x="173" y="224" type="line"/>
    </contour>
  </outline>
</glyph>
<glyph name="l" format="2">
  <advance width="291"/>
  <unicode hex="006C"/>
  <outline>
    <contour>
      <point x="162" y="-10" type="curve"/>
      <point x="272" y="14" type="line"/>
      <point x="272" y="58" type="line"/>
      <point x="193" y="72" type="line"/>
      <point x="193" y="728" type="line"/>
      <point x="173" y="748" type="line"/>
      <point x="18" y="725" type="line"/>
      <point x="18" y="683" type="line"/>
      <point x="98" y="666" type="line"/>
      <point x="98" y="95" type="line" smooth="yes"/>
      <point x="98" y="42"/>
      <point x="117" y="5"/>
    </contour>
  </outline>
</glyph>
<glyph name="m" format="2">
  <advance width="801"/>
  <unicode hex="006D"/>
  <outline>
    <contour>
      <point x="678" y="-10" type="curve"/>
      <point x="786" y="14" type="line"/>
      <point x="786" y="58" type="line"/>
      <point x="707" y="72" type="line"/>
      <point x="707" y="430" type="line" smooth="yes"/>
      <point x="707" y="508"/>
      <point x="655" y="555"/>
      <point x="576" y="555" type="curve" smooth="yes"/>
      <point x="548" y="555"/>
      <point x="522" y="550"/>
      <point x="500" y="544" type="curve"/>
      <point x="439" y="481" type="line"/>
      <point x="433" y="427" type="line"/>
      <point x="456" y="450"/>
      <point x="503" y="467"/>
      <point x="544" y="467" type="curve" smooth="yes"/>
      <point x="572" y="467"/>
      <point x="595" y="460"/>
      <point x="614" y="445" type="curve"/>
      <point x="614" y="100" type="line" smooth="yes"/>
      <point x="614" y="49"/>
      <point x="628" y="7"/>
    </contour>
    <contour>
      <point x="120" y="-7" type="line"/>
      <point x="195" y="0" type="line"/>
      <point x="195" y="467" type="line" smooth="yes"/>
      <point x="191" y="493"/>
      <point x="172" y="532"/>
      <point x="151" y="550" type="curve"/>
      <point x="20" y="521" type="line"/>
      <point x="20" y="479" type="line"/>
      <point x="100" y="462" type="line"/>
      <point x="100" y="14" type="line"/>
    </contour>
    <contour>
      <point x="380" y="-7" type="line"/>
      <point x="453" y="0" type="line"/>
      <point x="453" y="430" type="line"/>
      <point x="453" y="508"/>
      <point x="398" y="553"/>
      <point x="319" y="553" type="curve" smooth="yes"/>
      <point x="291" y="553"/>
      <point x="267" y="549"/>
      <point x="244" y="542" type="curve"/>
      <point x="180" y="481" type="line"/>
      <point x="174" y="427" type="line"/>
      <point x="195" y="448"/>
      <point x="244" y="466"/>
      <point x="284" y="466" type="curve" smooth="yes"/>
      <point x="311" y="466"/>
      <point x="340" y="460"/>
      <point x="360" y="446" type="curve"/>
      <point x="360" y="14" type="line"/>
    </contour>
  </outline>
</glyph>
<glyph name="n" format="2">
  <advance width="556"/>
  <unicode hex="006E"/>
  <anchor x="277" y="540" name="top"/>
  <anchor x="277" y="0" name="bottom"/>
  <outline>
    <contour>
      <point x="432" y="-10" type="curve"/>
      <point x="541" y="14" type="line"/>
      <point x="541" y="58" type="line"/>
      <point x="461" y="72" type="line"/>
      <point x="461" y="431" type="line" smooth="yes"/>
      <point x="461" y="510"/>
      <point x="407" y="555"/>
      <point x="326" y="555" type="curve" smooth="yes"/>
      <point x="295" y="555"/>
      <point x="270" y="550"/>
      <point x="248" y="543" type="curve"/>
      <point x="187" y="481" type="line"/>
      <point x="181" y="427" type="line"/>
      <point x="205" y="451"/>
      <point x="253" y="467"/>
      <point x="293" y="467" type="curve" smooth="yes"/>
      <point x="323" y="467"/>
      <point x="349" y="461"/>
      <point x="368" y="445" type="curve"/>
      <point x="368" y="95" type="line" smooth="yes"/>
      <point x="368" y="42"/>
      <point x="388" y="5"/>
    </contour>
    <contour>
      <point x="120" y="-7" type="line"/>
      <point x="195" y="0" type="line"/>
      <point x="195" y="467" type="line"/>
      <point x="188" y="501"/>
      <point x="168" y="535"/>
      <point x="151" y="550" type="curve"/>
      <point x="20" y="521" type="line"/>
      <point x="20" y="479" type="line"/>
      <point x="100" y="462" type="line"/>
      <point x="100" y="14" type="line"/>
    </contour>
  </outline>
</glyph>
<glyph name="o" format="2">
  <advance width="507"/>
  <unicode hex="006F"/>
  <anchor x="254" y="0" name="bottom"/>
  <anchor x="457" y="10" name="ogonek"/>
  <anchor x="254" y="540" name="top"/>
  <anchor x="487" y="540" name="topright"/>
  <anchor x="254" y="270" name="center"/>
  <outline>
    <contour>
      <point x="251" y="-10" type="curve" smooth="yes"/>
      <point x="303" y="-10"/>
      <point x="344" y="-3"/>
      <point x="364" y="5" type="curve"/>
      <point x="434" y="87" type="line"/>
      <point x="434" y="385" type="line" smooth="yes"/>
      <point x="434" y="501"/>
      <point x="375" y="550"/>
      <point x="266" y="550" type="curve" smooth="yes"/>
      <point x="210" y="550"/>
      <point x="167" y="543"/>
      <point x="144" y="537" type="curve"/>
      <point x="73" y="455" type="line"/>
      <point x="74" y="165" type="line" smooth="yes"/>
      <point x="74" y="46"/>
      <point x="139" y="-10"/>
    </contour>
    <contour>
      <point x="344" y="65" type="line"/>
      <point x="356" y="82" type="line"/>
      <point x="332" y="72"/>
      <point x="302" y="66"/>
      <point x="261" y="66" type="curve" smooth="yes"/>
      <point x="193" y="66"/>
      <point x="164" y="94"/>
      <point x="164" y="167" type="curve" smooth="yes"/>
      <point x="164" y="475" type="line"/>
      <point x="152" y="457" type="line"/>
      <point x="171" y="466"/>
      <point x="205" y="474"/>
      <point x="245" y="474" type="curve" smooth="yes"/>
      <point x="314" y="474"/>
      <point x="344" y="448"/>
      <point x="344" y="377" type="curve" smooth="yes"/>
    </contour>
  </outline>
</glyph>
<glyph name="p" format="2">
  <advance width="529"/>
  <unicode hex="0070"/>
  <outline>
    <contour>
      <point x="288" y="-9" type="curve" smooth="yes"/>
      <point x="333" y="-9"/>
      <point x="354" y="-2"/>
      <point x="379" y="5" type="curve"/>
      <point x="450" y="88" type="line"/>
      <point x="454" y="172"/>
      <point x="456" y="257"/>
      <point x="456" y="336" type="curve" smooth="yes"/>
      <point x="456" y="518"/>
      <point x="399" y="554"/>
      <point x="305" y="554" type="curve" smooth="yes"/>
      <point x="268" y="554"/>
      <point x="245" y="547"/>
      <point x="234" y="542" type="curve"/>
      <point x="174" y="469" type="line"/>
      <point x="174" y="436" type="line"/>
      <point x="197" y="454"/>
      <point x="233" y="472"/>
      <point x="269" y="472" type="curve" smooth="yes"/>
      <point x="337" y="472"/>
      <point x="363" y="447"/>
      <point x="363" y="312" type="curve" smooth="yes"/>
      <point x="363" y="235"/>
      <point x="361" y="144"/>
      <point x="356" y="69" type="curve"/>
      <point x="378" y="87" type="line"/>
      <point x="354" y="76"/>
      <point x="318" y="69"/>
      <point x="279" y="69" type="curve" smooth="yes"/>
      <point x="234" y="69"/>
      <point x="201" y="83"/>
      <point x="172" y="106" type="curve"/>
      <point x="140" y="72" type="line"/>
      <point x="173" y="26"/>
      <point x="226" y="-9"/>
    </contour>
    <contour>
      <point x="113" y="-207" type="line"/>
      <point x="186" y="-200" type="line"/>
      <point x="186" y="63" type="line"/>
      <point x="188" y="77" type="line"/>
      <point x="188" y="467" type="line" smooth="yes"/>
      <point x="185" y="493"/>
      <point x="167" y="533"/>
      <point x="138" y="550" type="curve"/>
      <point x="14" y="521" type="line"/>
      <point x="14" y="479" type="line"/>
      <point x="93" y="462" type="line"/>
      <point x="93" y="-187" type="line"/>
    </contour>
  </outline>
</glyph>
<glyph name="q" format="2">
  <advance width="509"/>
  <unicode hex="0071"/>
  <outline>
    <contour>
      <point x="226" y="-10" type="curve" smooth="yes"/>
      <point x="258" y="-10"/>
      <point x="285" y="-3"/>
      <point x="298" y="2" type="curve"/>
      <point x="361" y="85" type="line"/>
      <point x="352" y="113" type="line"/>
      <point x="330" y="91"/>
      <point x="296" y="68"/>
      <point x="255" y="68" type="curve" smooth="yes"/>
      <point x="196" y="68"/>
      <point x="167" y="104"/>
      <point x="167" y="169" type="curve" smooth="yes"/>
      <point x="167" y="472" type="line"/>
      <point x="152" y="454" type="line"/>
      <point x="175" y="467"/>
      <point x="208" y="472"/>
      <point x="245" y="472" type="curve" smooth="yes"/>
      <point x="294" y="472"/>
      <point x="327" y="459"/>
      <point x="357" y="435" type="curve"/>
      <point x="389" y="470" type="line"/>
      <point x="357" y="515"/>
      <point x="300" y="549"/>
      <point x="234" y="549" type="curve" smooth="yes"/>
      <point x="195" y="549"/>
      <point x="161" y="542"/>
      <point x="144" y="534" type="curve"/>
      <point x="73" y="452" type="line"/>
      <point x="74" y="152" type="line" smooth="yes"/>
      <point x="74" y="40"/>
      <point x="140" y="-10"/>
    </contour>
    <contour>
      <point x="363" y="-204" type="line"/>
      <point x="436" y="-197" type="line"/>
      <point x="436" y="540" type="line"/>
      <point x="394" y="540" type="line"/>
      <point x="341" y="458" type="line"/>
      <point x="341" y="69" type="line"/>
      <point x="343" y="59" type="line"/>
      <point x="343" y="-184" type="line"/>
    </contour>
  </outline>
</glyph>
<glyph name="r" format="2">
  <advance width="368"/>
  <unicode hex="0072"/>
  <outline>
    <contour>
      <point x="120" y="-7" type="line"/>
      <point x="195" y="0" type="line"/>
      <point x="195" y="467" type="line" smooth="yes"/>
      <point x="191" y="493"/>
      <point x="173" y="530"/>
      <point x="151" y="550" type="curve"/>
      <point x="20" y="521" type="line"/>
      <point x="20" y="479" type="line"/>
      <point x="100" y="462" type="line"/>
      <point x="100" y="14" type="line"/>
    </contour>
    <contour>
      <point x="186" y="437" type="line"/>
      <point x="214" y="449"/>
      <point x="250" y="458"/>
      <point x="289" y="458" type="curve" smooth="yes"/>
      <point x="309" y="458"/>
      <point x="328" y="457"/>
      <point x="342" y="455" type="curve"/>
      <point x="353" y="544" type="line"/>
      <point x="339" y="549"/>
      <point x="321" y="551"/>
      <point x="301" y="551" type="curve" smooth="yes"/>
      <point x="278" y="551"/>
      <point x="257" y="547"/>
      <point x="234" y="540" type="curve"/>
      <point x="187" y="476" type="line"/>
    </contour>
  </outline>
</glyph>
<glyph name="s" format="2">
  <advance width="412"/>
  <unicode hex="0073"/>
  <outline>
    <contour>
      <point x="191" y="-12" type="curve" smooth="yes"/>
      <point x="249" y="-12"/>
      <point x="292" y="3"/>
      <point x="327" y="27" type="curve"/>
      <point x="374" y="89" type="line"/>
      <point x="375" y="140" type="line" smooth="yes"/>
      <point x="379" y="230"/>
      <point x="339" y="265"/>
      <point x="247" y="304" type="curve" smooth="yes"/>
      <point x="177" y="333"/>
      <point x="136" y="347"/>
      <point x="136" y="407" type="curve" smooth="yes"/>
      <point x="136" y="452" type="line"/>
      <point x="122" y="422" type="line"/>
      <point x="138" y="444"/>
      <point x="170" y="464"/>
      <point x="230" y="464" type="curve" smooth="yes"/>
      <point x="276" y="464"/>
      <point x="308" y="456"/>
      <point x="345" y="442" type="curve"/>
      <point x="368" y="522" type="line"/>
      <point x="339" y="538"/>
      <point x="293" y="549"/>
      <point x="239" y="549" type="curve" smooth="yes"/>
      <point x="163" y="549"/>
      <point x="119" y="530"/>
      <point x="82" y="494" type="curve"/>
      <point x="46" y="438" type="line"/>
      <point x="46" y="393" type="line" smooth="yes"/>
      <point x="46" y="305"/>
      <point x="94" y="275"/>
      <point x="164" y="244" type="curve" smooth="yes"/>
      <point x="234" y="213"/>
      <point x="287" y="199"/>
      <point x="287" y="125" type="curve" smooth="yes"/>
      <point x="287" y="105"/>
      <point x="285" y="84"/>
      <point x="282" y="64" type="curve"/>
      <point x="303" y="100" type="line"/>
      <point x="275" y="77"/>
      <point x="238" y="73"/>
      <point x="194" y="73" type="curve" smooth="yes"/>
      <point x="147" y="73"/>
      <point x="101" y="85"/>
      <point x="58" y="106" type="curve"/>
      <point x="42" y="21" type="line"/>
      <point x="78" y="3"/>
      <point x="126" y="-12"/>
    </contour>
  </outline>
</glyph>
<glyph name="t" format="2">
  <advance width="380"/>
  <unicode hex="0074"/>
  <outline>
    <contour>
      <point x="249" y="-10" type="curve" smooth="yes"/>
      <point x="267" y="-10"/>
      <point x="282" y="-9"/>
      <point x="294" y="-6" type="curve"/>
      <point x="371" y="24" type="line"/>
      <point x="371" y="79" type="line"/>
      <point x="341" y="73"/>
      <point x="321" y="70"/>
      <point x="282" y="70" type="curve" smooth="yes"/>
      <point x="230" y="70"/>
      <point x="204" y="105"/>
      <point x="204" y="181" type="curve" smooth="yes"/>
      <point x="204" y="635" type="line"/>
      <point x="183" y="655" type="line"/>
      <point x="109" y="633" type="line"/>
      <point x="109" y="157" type="line" smooth="yes"/>
      <point x="109" y="46"/>
      <point x="168" y="-10"/>
    </contour>
    <contour>
      <point x="335" y="466" type="line"/>
      <point x="359" y="484" type="line"/>
      <point x="359" y="537" type="line"/>
      <point x="29" y="529" type="line"/>
      <point x="15" y="516" type="line"/>
      <point x="18" y="471" type="line"/>
    </contour>
  </outline>
</glyph>
<glyph name="u" format="2">
  <advance width="549"/>
  <unicode hex="0075"/>
  <anchor x="495" y="10" name="ogonek"/>
  <anchor x="275" y="540" name="top"/>
  <anchor x="529" y="540" name="topright"/>
  <anchor x="275" y="0" name="bottom"/>
  <outline>
    <contour>
      <point x="241" y="-11" type="curve" smooth="yes"/>
      <point x="273" y="-11"/>
      <point x="304" y="-3"/>
      <point x="326" y="6" type="curve"/>
      <point x="387" y="85" type="line"/>
      <point x="374" y="120" type="line"/>
      <point x="347" y="92"/>
      <point x="316" y="74"/>
      <point x="272" y="74" type="curve" smooth="yes"/>
      <point x="238" y="74"/>
      <point x="212" y="84"/>
      <point x="193" y="109" type="curve"/>
      <point x="193" y="464" type="line" smooth="yes"/>
      <point x="189" y="489"/>
      <point x="171" y="528"/>
      <point x="149" y="547" type="curve"/>
      <point x="18" y="517" type="line"/>
      <point x="18" y="475" type="line"/>
      <point x="98" y="458" type="line"/>
      <point x="98" y="133" type="line" smooth="yes"/>
      <point x="98" y="37"/>
      <point x="161" y="-11"/>
    </contour>
    <contour>
      <point x="440" y="-10" type="curve"/>
      <point x="534" y="14" type="line"/>
      <point x="534" y="58" type="line"/>
      <point x="461" y="72" type="line"/>
      <point x="461" y="528" type="line"/>
      <point x="441" y="548" type="line"/>
      <point x="290" y="530" type="line"/>
      <point x="290" y="487" type="line"/>
      <point x="366" y="470" type="line"/>
      <point x="366" y="82" type="line" smooth="yes"/>
      <point x="366" y="36"/>
      <point x="391" y="0"/>
    </contour>
  </outline>
</glyph>
<glyph name="v" format="2">
  <advance width="489"/>
  <unicode hex="0076"/>
  <outline>
    <contour>
      <point x="249" y="-10" type="curve" smooth="yes"/>
      <point x="268" y="-10"/>
      <point x="289" y="-5"/>
      <point x="301" y="-1" type="curve"/>
      <point x="288" y="56" type="line"/>
      <point x="277" y="74"/>
      <point x="274" y="63"/>
      <point x="268" y="70" type="curve" smooth="yes"/>
      <point x="132" y="545" type="line"/>
      <point x="-13" y="528" type="line"/>
      <point x="-13" y="485" type="line"/>
      <point x="53" y="465" type="line"/>
      <point x="167" y="86" type="line" smooth="yes"/>
      <point x="192" y="7"/>
      <point x="203" y="-10"/>
    </contour>
    <contour>
      <point x="301" y="-1" type="line"/>
      <point x="466" y="494" type="line"/>
      <point x="459" y="540" type="line"/>
      <point x="296" y="540" type="line"/>
      <point x="292" y="498" type="line"/>
      <point x="372" y="475" type="line"/>
      <point x="263" y="55" type="line"/>
    </contour>
  </outline>
</glyph>
<glyph name="w" format="2">
  <advance width="750"/>
  <unicode hex="0077"/>
  <outline>
    <contour>
      <point x="233" y="-10" type="curve" smooth="yes"/>
      <point x="251" y="-10"/>
      <point x="277" y="-5"/>
      <point x="289" y="-1" type="curve"/>
      <point x="272" y="56" type="line"/>
      <point x="264" y="66"/>
      <point x="257" y="65"/>
      <point x="252" y="70" type="curve"/>
      <point x="132" y="545" type="line"/>
      <point x="-13" y="528" type="line"/>
      <point x="-13" y="486" type="line"/>
      <point x="53" y="465" type="line"/>
      <point x="151" y="86" type="line" smooth="yes"/>
      <point x="171" y="13"/>
      <point x="186" y="-10"/>
    </contour>
    <contour>
      <point x="289" y="-1" type="line"/>
      <point x="398" y="494" type="line"/>
      <point x="419" y="543" type="line"/>
      <point x="339" y="540" type="line"/>
      <point x="243" y="55" type="line"/>
    </contour>
    <contour>
      <point x="523" y="-10" type="curve" smooth="yes"/>
      <point x="542" y="-10"/>
      <point x="563" y="-5"/>
      <point x="575" y="-1" type="curve"/>
      <point x="562" y="56" type="line"/>
      <point x="556" y="56"/>
      <point x="548" y="63"/>
      <point x="542" y="70" type="curve"/>
      <point x="422" y="545" type="line"/>
      <point x="339" y="540" type="line"/>
      <point x="362" y="427" type="line"/>
      <point x="445" y="87" type="line" smooth="yes"/>
      <point x="463" y="13"/>
      <point x="479" y="-10"/>
    </contour>
    <contour>
      <point x="575" y="-1" type="line"/>
      <point x="727" y="494" type="line"/>
      <point x="720" y="540" type="line"/>
      <point x="564" y="540" type="line"/>
      <point x="558" y="498" type="line"/>
      <point x="633" y="475" type="line"/>
      <point x="536" y="55" type="line"/>
    </contour>
  </outline>
</glyph>
<glyph name="x" format="2">
  <advance width="485"/>
  <unicode hex="0078"/>
  <outline>
    <contour>
      <point x="248" y="278" type="line"/>
      <point x="286" y="249" type="line"/>
      <point x="456" y="494" type="line"/>
      <point x="449" y="540" type="line"/>
      <point x="292" y="540" type="line"/>
      <point x="287" y="498" type="line"/>
      <point x="357" y="475" type="line"/>
    </contour>
    <contour>
      <point x="5" y="485" type="line"/>
      <point x="73" y="465" type="line"/>
      <point x="205" y="246" type="line"/>
      <point x="218" y="234" type="line"/>
      <point x="312" y="66" type="line" smooth="yes"/>
      <point x="337" y="21"/>
      <point x="350" y="5"/>
      <point x="388" y="-7" type="curve"/>
      <point x="480" y="15" type="line"/>
      <point x="480" y="59" type="line"/>
      <point x="414" y="78" type="line"/>
      <point x="283" y="297" type="line"/>
      <point x="269" y="307" type="line"/>
      <point x="137" y="545" type="line"/>
      <point x="5" y="528" type="line"/>
    </contour>
    <contour>
      <point x="239" y="255" type="line"/>
      <point x="202" y="289" type="line"/>
      <point x="32" y="45" type="line"/>
      <point x="38" y="0" type="line"/>
      <point x="195" y="0" type="line"/>
      <point x="199" y="42" type="line"/>
      <point x="133" y="62" type="line"/>
    </contour>
  </outline>
</glyph>
<glyph name="y" format="2">
  <advance width="468"/>
  <unicode hex="0079"/>
  <outline>
    <contour>
      <point x="61" y="-210" type="line"/>
      <point x="100" y="-207"/>
      <point x="164" y="-198"/>
      <point x="200" y="-173" type="curve" smooth="yes"/>
      <point x="238" y="-148"/>
      <point x="265" y="-90"/>
      <point x="291" y="-10" type="curve" smooth="yes"/>
      <point x="455" y="494" type="line"/>
      <point x="449" y="540" type="line"/>
      <point x="285" y="540" type="line"/>
      <point x="282" y="498" type="line"/>
      <point x="361" y="475" type="line"/>
      <point x="252" y="50" type="line"/>
      <point x="264" y="52" type="line"/>
      <point x="122" y="545" type="line"/>
      <point x="-23" y="528" type="line"/>
      <point x="-23" y="485" type="line"/>
      <point x="43" y="465" type="line"/>
      <point x="185" y="7" type="line"/>
      <point x="236" y="-11" type="line"/>
      <point x="241" y="24" type="line"/>
      <point x="218" y="-22"/>
      <point x="183" y="-83"/>
      <point x="154" y="-116" type="curve"/>
      <point x="122" y="-134"/>
      <point x="79" y="-151"/>
      <point x="48" y="-162" type="curve"/>
    </contour>
  </outline>
</glyph>
<glyph name="z" format="2">
  <advance width="414"/>
  <unicode hex="007A"/>
  <outline>
    <contour>
      <point x="384" y="472" type="line"/>
      <point x="373" y="540" type="line"/>
      <point x="40" y="545" type="line"/>
      <point x="20" y="525" type="line"/>
      <point x="32" y="378" type="line"/>
      <point x="83" y="378" type="line"/>
      <point x="93" y="459" type="line"/>
      <point x="335" y="460" type="line"/>
      <point x="320" y="502" type="line"/>
      <point x="31" y="55" type="line"/>
      <point x="42" y="0" type="line"/>
      <point x="367" y="0" type="line"/>
      <point x="387" y="20" type="line"/>
      <point x="382" y="85" type="line"/>
      <point x="82" y="81" type="line"/>
      <point x="100" y="42" type="line"/>
    </contour>
  </outline>
</glyph>
<glyph name="dotlessi" format="2">
  <advance width="291"/>
  <unicode hex="0131"/>
  <anchor x="261" y="10" name="ogonek"/>
  <anchor x="145" y="0" name="bottom"/>
  <anchor x="145" y="540" name="top"/>
  <outline>
    <contour>
      <point x="162" y="-10" type="curve"/>
      <point x="272" y="14" type="line"/>
      <point x="272" y="58" type="line"/>
      <point x="193" y="72" type="line"/>
      <point x="193" y="528" type="line"/>
      <point x="173" y="548" type="line"/>
      <point x="18" y="525" type="line"/>
      <point x="18" y="483" type="line"/>
      <point x="98" y="466" type="line"/>
      <point x="98" y="95" type="line" smooth="yes"/>
      <point x="98" y="42"/>
      <point x="117" y="5"/>
    </contour>
  </outline>
</glyph>
<glyph name="acutecomb" format="2">
  <advance width="353"/>
  <unicode hex="0301"/>
  <anchor x="176" y="773" name="top"/>
  <anchor x="176" y="514" name="_top"/>
  <outline>
    <contour>
      <point x="311" y="699" type="curve"/>
      <point x="310" y="730"/>
      <point x="290" y="773"/>
      <point x="260" y="783" type="curve"/>
      <point x="200" y="742"/>
      <point x="106" y="673"/>
      <point x="45" y="629" type="curve"/>
      <point x="65" y="594" type="line"/>
      <point x="131" y="624"/>
      <point x="241" y="667"/>
    </contour>
  </outline>
</glyph>
<glyph name="tildecomb" format="2">
  <advance width="467"/>
  <unicode hex="0303"/>
  <anchor x="237" y="749" name="top"/>
  <anchor x="237" y="540" name="_top"/>
  <outline>
    <contour>
      <point x="318" y="692" type="curve"/>
      <point x="383" y="744" type="line"/>
      <point x="387" y="739"/>
      <point x="404" y="726"/>
      <point x="412" y="716" type="curve"/>
      <point x="383" y="661"/>
      <point x="351" y="623"/>
      <point x="302" y="623" type="curve" smooth="yes"/>
      <point x="250" y="623"/>
      <point x="198" y="655"/>
      <point x="153" y="679" type="curve"/>
      <point x="87" y="622" type="line"/>
      <point x="82" y="627"/>
      <point x="65" y="637"/>
      <point x="55" y="647" type="curve"/>
      <point x="79" y="705"/>
      <point x="122" y="751"/>
      <point x="168" y="751" type="curve" smooth="yes"/>
      <point x="215" y="751"/>
      <point x="265" y="722"/>
    </contour>
  </outline>
</glyph>
<glyph name="uni0307" format="2">
  <advance width="291"/>
  <unicode hex="0307"/>
  <anchor x="145" y="540" name="_top"/>
  <outline>
    <contour>
      <point x="184" y="643" type="curve"/>
      <point x="197" y="659"/>
      <point x="205" y="683"/>
      <point x="205" y="707" type="curve" smooth="yes"/>
      <point x="205" y="729"/>
      <point x="200" y="746"/>
      <point x="190" y="761" type="curve"/>
      <point x="166" y="763"/>
      <point x="107" y="754"/>
      <point x="89" y="746" type="curve"/>
      <point x="83" y="718"/>
      <point x="85" y="672"/>
      <point x="96" y="650" type="curve"/>
      <point x="124" y="641"/>
      <point x="157" y="640"/>
    </contour>
  </outline>
</glyph>
<glyph name="uni0308" format="2">
  <advance width="414"/>
  <unicode hex="0308"/>
  <anchor x="207" y="798" name="top"/>
  <anchor x="207" y="514" name="_top"/>
  <outline>
    <contour>
      <point x="101" y="638" type="curve" smooth="yes"/>
      <point x="118" y="638"/>
      <point x="134" y="643"/>
      <point x="146" y="650" type="curve"/>
      <point x="158" y="662"/>
      <point x="164" y="678"/>
      <point x="164" y="694" type="curve" smooth="yes"/>
      <point x="164" y="724"/>
      <point x="143" y="750"/>
      <point x="110" y="750" type="curve" smooth="yes"/>
      <point x="93" y="750"/>
      <point x="75" y="744"/>
      <point x="64" y="736" type="curve"/>
      <point x="52" y="725"/>
      <point x="47" y="709"/>
      <point x="47" y="693" type="curve" smooth="yes"/>
      <point x="47" y="664"/>
      <point x="69" y="638"/>
    </contour>
    <contour>
      <point x="304" y="638" type="curve" smooth="yes"/>
      <point x="320" y="638"/>
      <point x="337" y="643"/>
      <point x="349" y="650" type="curve"/>
      <point x="362" y="662"/>
      <point x="367" y="677"/>
      <point x="367" y="694" type="curve" smooth="yes"/>
      <point x="367" y="724"/>
      <point x="344" y="750"/>
      <point x="311" y="750" type="curve" smooth="yes"/>
      <point x="294" y="750"/>
      <point x="276" y="744"/>
      <point x="265" y="735" type="curve"/>
      <point x="254" y="723"/>
      <point x="251" y="709"/>
      <point x="251" y="693" type="curve" smooth="yes"/>
      <point x="251" y="664"/>
      <point x="272" y="638"/>
    </contour>
  </outline>
</glyph>
<glyph name="quoteleft" format="2">
  <advance width="204"/>
  <unicode hex="2018"/>
  <outline>
    <contour>
      <point x="109" y="456" type="curve" smooth="yes"/>
      <point x="134" y="456"/>
      <point x="151" y="464"/>
      <point x="167" y="479" type="curve"/>
      <point x="154" y="513"/>
      <point x="138" y="548"/>
      <point x="125" y="575" type="curve"/>
      <point x="159" y="734" type="line"/>
      <point x="123" y="750" type="line"/>
      <point x="81" y="687"/>
      <point x="37" y="601"/>
      <point x="37" y="539" type="curve" smooth="yes"/>
      <point x="37" y="491"/>
      <point x="67" y="456"/>
    </contour>
  </outline>
</glyph>
<glyph name="_part.TailFigures" format="2">
	<advance width="415"/>
	<outline>
		<contour>
			<point x="327" y="53" type="line"/>
			<point x="327" y="-29" type="line"/>
			<point x="342" y="9" type="line"/>
			<point x="316" y="-31"/>
			<point x="263" y="-51"/>
			<point x="199" y="-51" type="curve" smooth="yes"/>
			<point x="142" y="-51"/>
			<point x="85" y="-34"/>
			<point x="46" y="-7" type="curve"/>
			<point x="14" y="-76" type="line"/>
			<point x="59" y="-108"/>
			<point x="122" y="-130"/>
			<point x="202" y="-130" type="curve" smooth="yes"/>
			<point x="295" y="-130"/>
			<point x="365" y="-90"/>
			<point x="400" y="-31" type="curve"/>
			<point x="415" y="20" type="line"/>
			<point x="415" y="53" type="line"/>
		</contour>
	</outline>
</glyph>
<glyph name="_part.bottomFigures" format="2">
	<advance width="422"/>
	<outline>
		<contour>
			<point x="19" y="0" type="line"/>
			<point x="402" y="0" type="line"/>
			<point x="422" y="20" type="line"/>
			<point x="419" y="82" type="line"/>
			<point x="58" y="64" type="line"/>
			<point x="22" y="78" type="line"/>
			<point x="0" y="46" type="line"/>
		</contour>
	</outline>
</glyph>
<glyph name="_part.sixBowl" format="2">
	<advance width="501"/>
	<outline>
		<contour>
			<point x="146" y="443" type="line"/>
			<point x="58" y="432" type="line"/>
			<point x="58" y="165" type="line" smooth="yes"/>
			<point x="58" y="45"/>
			<point x="129" y="-10"/>
			<point x="251" y="-10" type="curve" smooth="yes"/>
			<point x="294" y="-10"/>
			<point x="338" y="-4"/>
			<point x="360" y="4" type="curve"/>
			<point x="443" y="109" type="line"/>
			<point x="443" y="258" type="line" smooth="yes"/>
			<point x="443" y="356"/>
			<point x="387" y="411"/>
			<point x="293" y="411" type="curve" smooth="yes"/>
			<point x="261" y="411"/>
			<point x="222" y="408"/>
			<point x="202" y="403" type="curve"/>
			<point x="138" y="349" type="line"/>
			<point x="138" y="320" type="line"/>
			<point x="169" y="328"/>
			<point x="221" y="335"/>
			<point x="266" y="335" type="curve" smooth="yes"/>
			<point x="315" y="335"/>
			<point x="355" y="312"/>
			<point x="355" y="242" type="curve" smooth="yes"/>
			<point x="355" y="61" type="line"/>
			<point x="367" y="83" type="line"/>
			<point x="349" y="74"/>
			<point x="321" y="68"/>
			<point x="255" y="68" type="curve" smooth="yes"/>
			<point x="178" y="68"/>
			<point x="146" y="97"/>
			<point x="146" y="182" type="curve" smooth="yes"/>
		</contour>
	</outline>
</glyph>
<glyph name="_part.tailFiguresOld" format="2">
	<advance width="401"/>
	<anchor x="401" y="132" name="connect"/>
	<anchor x="0" y="132" name="_connect"/>
	<outline>
		<contour>
			<point x="401" y="132" type="curve"/>
			<point x="313" y="121" type="line"/>
			<point x="313" y="30"/>
			<point x="208" y="-57"/>
			<point x="3" y="-73" type="curve"/>
			<point x="5" y="-120" type="line"/>
			<point x="33" y="-130" type="line"/>
			<point x="199" y="-130"/>
			<point x="401" y="-53"/>
		</contour>
	</outline>
</glyph>
<glyph name="_part.threeTop" format="2">
	<advance width="405"/>
	<outline>
		<contour>
			<point x="405" y="173" type="line"/>
			<point x="405" y="195" type="line" smooth="yes"/>
			<point x="405" y="309"/>
			<point x="345" y="375"/>
			<point x="241" y="375" type="curve" smooth="yes"/>
			<point x="222" y="375"/>
			<point x="175" y="375"/>
			<point x="163" y="373" type="curve"/>
			<point x="173" y="348" type="line"/>
			<point x="394" y="612" type="line"/>
			<point x="373" y="680" type="line"/>
			<point x="37" y="680" type="line"/>
			<point x="7" y="649" type="line"/>
			<point x="20" y="504" type="line"/>
			<point x="73" y="504" type="line"/>
			<point x="89" y="642" type="line"/>
			<point x="44" y="602" type="line"/>
			<point x="341" y="602" type="line"/>
			<point x="319" y="635" type="line"/>
			<point x="101" y="337" type="line"/>
			<point x="123" y="303" type="line"/>
			<point x="136" y="305"/>
			<point x="190" y="306"/>
			<point x="208" y="306" type="curve" smooth="yes"/>
			<point x="281" y="306"/>
			<point x="317" y="270"/>
			<point x="317" y="184" type="curve" smooth="yes"/>
			<point x="317" y="173" type="line"/>
		</contour>
	</outline>
</glyph>
<glyph name="_part.topFive" format="2">
	<advance width="501"/>
	<outline>
		<contour>
			<point x="441" y="53" type="line"/>
			<point x="441" y="104" type="line" smooth="yes"/>
			<point x="441" y="215"/>
			<point x="358" y="277"/>
			<point x="249" y="277" type="curve" smooth="yes"/>
			<point x="181" y="277"/>
			<point x="151" y="265"/>
			<point x="114" y="257" type="curve"/>
			<point x="140" y="230" type="line"/>
			<point x="141" y="512" type="line"/>
			<point x="106" y="482" type="line"/>
			<point x="375" y="482" type="line"/>
			<point x="336" y="519" type="line"/>
			<point x="359" y="365" type="line"/>
			<point x="410" y="365" type="line"/>
			<point x="422" y="530" type="line"/>
			<point x="392" y="560" type="line"/>
			<point x="113" y="560" type="line"/>
			<point x="61" y="490" type="line"/>
			<point x="65" y="244" type="line"/>
			<point x="118" y="188" type="line"/>
			<point x="147" y="194"/>
			<point x="183" y="201"/>
			<point x="230" y="201" type="curve" smooth="yes"/>
			<point x="311" y="200"/>
			<point x="353" y="159"/>
			<point x="353" y="96" type="curve" smooth="yes"/>
			<point x="353" y="53" type="line"/>
		</contour>
	</outline>
</glyph>
<glyph name="a.ss01" format="2">
  <advance width="530"/>
  <anchor x="509" y="10" name="ogonek"/>
  <anchor x="296" y="0" name="bottom"/>
  <anchor x="296" y="540" name="top"/>
  <outline>
    <contour>
      <point x="226" y="-10" type="curve" smooth="yes"/>
      <point x="263" y="-10"/>
      <point x="292" y="-5"/>
      <point x="303" y="0" type="curve"/>
      <point x="366" y="75" type="line"/>
      <point x="366" y="91" type="line"/>
      <point x="345" y="84"/>
      <point x="299" y="72"/>
      <point x="262" y="72" type="curve" smooth="yes"/>
      <point x="196" y="72"/>
      <point x="166" y="93"/>
      <point x="166" y="143" type="curve"/>
      <point x="166" y="473" type="line"/>
      <point x="152" y="454" type="line"/>
      <point x="163" y="460"/>
      <point x="206" y="472"/>
      <point x="249" y="472" type="curve" smooth="yes"/>
      <point x="305" y="472"/>
      <point x="346" y="447"/>
      <point x="357" y="436" type="curve"/>
      <point x="389" y="470" type="line"/>
      <point x="357" y="515"/>
      <point x="305" y="549"/>
      <point x="241" y="549" type="curve" smooth="yes"/>
      <point x="194" y="549"/>
      <point x="161" y="542"/>
      <point x="144" y="534" type="curve"/>
      <point x="73" y="452" type="line"/>
      <point x="74" y="152" type="line" smooth="yes"/>
      <point x="74" y="36"/>
      <point x="133" y="-10"/>
    </contour>
    <contour>
      <point x="436" y="72" type="line"/>
      <point x="436" y="540" type="line"/>
      <point x="394" y="540" type="line"/>
      <point x="341" y="458" type="line"/>
      <point x="341" y="85" type="line"/>
      <point x="341" y="47"/>
      <point x="369" y="0"/>
      <point x="424" y="-10" type="curve"/>
      <point x="515" y="14" type="line"/>
      <point x="515" y="58" type="line"/>
    </contour>
  </outline>
</glyph>
<glyph name="eight.osf" format="2">
  <advance width="501"/>
  <outline>
    <contour>
      <point x="451" y="155" type="line" smooth="yes"/>
      <point x="451" y="293"/>
      <point x="369" y="325"/>
      <point x="290" y="374" type="curve" smooth="yes"/>
      <point x="217" y="419"/>
      <point x="151" y="443"/>
      <point x="151" y="549" type="curve" smooth="yes"/>
      <point x="151" y="612" type="line"/>
      <point x="143" y="595" type="line"/>
      <point x="153" y="600"/>
      <point x="200" y="611"/>
      <point x="249" y="611" type="curve" smooth="yes"/>
      <point x="309" y="611"/>
      <point x="357" y="575"/>
      <point x="357" y="520" type="curve" smooth="yes"/>
      <point x="357" y="449"/>
      <point x="317" y="400"/>
      <point x="273" y="360" type="curve"/>
      <point x="298" y="332" type="line"/>
      <point x="370" y="382" type="line"/>
      <point x="425" y="438"/>
      <point x="439" y="467"/>
      <point x="439" y="533" type="curve" smooth="yes"/>
      <point x="439" y="632"/>
      <point x="363" y="690"/>
      <point x="269" y="690" type="curve" smooth="yes"/>
      <point x="226" y="690"/>
      <point x="186" y="684"/>
      <point x="159" y="676" type="curve"/>
      <point x="69" y="574" type="line"/>
      <point x="69" y="524" type="line" smooth="yes"/>
      <point x="69" y="394"/>
      <point x="142" y="362"/>
      <point x="218" y="316" type="curve" smooth="yes"/>
      <point x="292" y="270"/>
      <point x="370" y="243"/>
      <point x="370" y="131" type="curve" smooth="yes"/>
      <point x="370" y="109"/>
      <point x="369" y="88"/>
      <point x="365" y="66" type="curve"/>
      <point x="380" y="88" type="line"/>
      <point x="367" y="78"/>
      <point x="305" y="70"/>
      <point x="249" y="70" type="curve" smooth="yes"/>
      <point x="174" y="70"/>
      <point x="132" y="104"/>
      <point x="132" y="168" type="curve" smooth="yes"/>
      <point x="132" y="227"/>
      <point x="162" y="282"/>
      <point x="232" y="334" type="curve"/>
      <point x="181" y="365" type="line"/>
      <point x="135" y="318" type="line"/>
      <point x="80" y="274"/>
      <point x="50" y="225"/>
      <point x="50" y="158" type="curve" smooth="yes"/>
      <point x="50" y="45"/>
      <point x="138" y="-10"/>
      <point x="260" y="-10" type="curve" smooth="yes"/>
      <point x="296" y="-10"/>
      <point x="339" y="-4"/>
      <point x="361" y="4" type="curve"/>
      <point x="451" y="109" type="line"/>
    </contour>
  </outline>
</glyph>
<glyph name="five.osf" format="2">
  <advance width="501"/>
  <anchor x="445" y="132" name="connect"/>
  <anchor x="43" y="132" name="_connect"/>
  <outline>
    <contour>
      <point x="445" y="132" type="line"/>
      <point x="445" y="132" type="line" smooth="yes"/>
      <point x="445" y="229"/>
      <point x="383" y="284"/>
      <point x="274" y="284" type="curve" smooth="yes"/>
      <point x="202" y="284"/>
      <point x="142" y="270"/>
      <point x="106" y="260" type="curve"/>
      <point x="134" y="237" type="line"/>
      <point x="137" y="512" type="line"/>
      <point x="104" y="482" type="line"/>
      <point x="379" y="482" type="line"/>
      <point x="336" y="519" type="line"/>
      <point x="366" y="370" type="line"/>
      <point x="417" y="370" type="line"/>
      <point x="425" y="530" type="line"/>
      <point x="395" y="560" type="line"/>
      <point x="110" y="560" type="line"/>
      <point x="59" y="490" type="line"/>
      <point x="59" y="251" type="line"/>
      <point x="112" y="195" type="line"/>
      <point x="141" y="202"/>
      <point x="191" y="208"/>
      <point x="248" y="207" type="curve" smooth="yes"/>
      <point x="327" y="207"/>
      <point x="357" y="173"/>
      <point x="357" y="121" type="curve" smooth="yes"/>
      <point x="357" y="121" type="line"/>
    </contour>
    <component base="_part.tailFiguresOld" xOffset="43"/>
  </outline>
</glyph>
<glyph name="four.osf" format="2">
  <advance width="501"/>
  <outline>
    <contour>
      <point x="309" y="560" type="line"/>
      <point x="17" y="54" type="line"/>
      <point x="32" y="0" type="line"/>
      <point x="464" y="0" type="line"/>
      <point x="484" y="20" type="line"/>
      <point x="483" y="75" type="line"/>
      <point x="58" y="61" type="line"/>
      <point x="86" y="46" type="line"/>
      <point x="363" y="530" type="line"/>
      <point x="319" y="530" type="line"/>
      <point x="319" y="-113" type="line"/>
      <point x="337" y="-130" type="line"/>
      <point x="407" y="-120" type="line"/>
      <point x="407" y="560" type="line"/>
    </contour>
  </outline>
</glyph>
<glyph name="one.lf" format="2">
  <advance width="501"/>
  <outline>
    <contour>
      <point x="37" y="0" type="line"/>
      <point x="464" y="0" type="line"/>
      <point x="464" y="51" type="line"/>
      <point x="298" y="71" type="line"/>
      <point x="298" y="670" type="line"/>
      <point x="277" y="690" type="line"/>
      <point x="54" y="658" type="line"/>
      <point x="54" y="614" type="line"/>
      <point x="208" y="602" type="line"/>
      <point x="208" y="71" type="line"/>
      <point x="37" y="51" type="line"/>
    </contour>
  </outline>
</glyph>
<glyph name="one.osf" format="2">
  <advance width="501"/>
  <outline>
    <contour>
      <point x="37" y="0" type="line"/>
      <point x="464" y="0" type="line"/>
      <point x="464" y="54" type="line"/>
      <point x="298" y="71" type="line"/>
      <point x="298" y="550" type="line"/>
      <point x="277" y="570" type="line"/>
      <point x="54" y="542" type="line"/>
      <point x="54" y="494" type="line"/>
      <point x="208" y="482" type="line"/>
      <point x="208" y="71" type="line"/>
      <point x="37" y="54" type="line"/>
    </contour>
  </outline>
</glyph>
<glyph name="q.ss01" format="2">
  <advance width="549"/>
  <outline>
    <contour>
      <point x="226" y="-10" type="curve" smooth="yes"/>
      <point x="263" y="-10"/>
      <point x="292" y="-5"/>
      <point x="303" y="0" type="curve"/>
      <point x="366" y="75" type="line"/>
      <point x="366" y="91" type="line"/>
      <point x="345" y="83"/>
      <point x="299" y="71"/>
      <point x="262" y="71" type="curve" smooth="yes"/>
      <point x="196" y="71"/>
      <point x="166" y="92"/>
      <point x="166" y="143" type="curve"/>
      <point x="166" y="472" type="line"/>
      <point x="152" y="454" type="line"/>
      <point x="163" y="459"/>
      <point x="206" y="472"/>
      <point x="249" y="472" type="curve" smooth="yes"/>
      <point x="305" y="472"/>
      <point x="346" y="446"/>
      <point x="357" y="435" type="curve"/>
      <point x="389" y="470" type="line"/>
      <point x="357" y="515"/>
      <point x="305" y="549"/>
      <point x="241" y="549" type="curve" smooth="yes"/>
      <point x="194" y="549"/>
      <point x="161" y="542"/>
      <point x="144" y="534" type="curve"/>
      <point x="73" y="452" type="line"/>
      <point x="74" y="152" type="line" smooth="yes"/>
      <point x="74" y="36"/>
      <point x="133" y="-10"/>
    </contour>
    <contour>
      <point x="370" y="-209" type="line"/>
      <point x="516" y="-190" type="line"/>
      <point x="516" y="-148" type="line"/>
      <point x="436" y="-131" type="line"/>
      <point x="436" y="537" type="line"/>
      <point x="394" y="540" type="line"/>
      <point x="341" y="458" type="line"/>
      <point x="341" y="66" type="line"/>
      <point x="343" y="55" type="line"/>
      <point x="343" y="-182" type="line"/>
    </contour>
  </outline>
</glyph>
<glyph name="seven.osf" format="2">
  <advance width="501"/>
  <outline>
    <contour>
      <point x="223" y="-120" type="line"/>
      <point x="306" y="131" type="line"/>
      <point x="474" y="504" type="line"/>
      <point x="449" y="560" type="line"/>
      <point x="61" y="560" type="line"/>
      <point x="31" y="530" type="line"/>
      <point x="46" y="350" type="line"/>
      <point x="97" y="350" type="line"/>
      <point x="128" y="519" type="line"/>
      <point x="79" y="479" type="line"/>
      <point x="416" y="479" type="line"/>
      <point x="387" y="525" type="line"/>
      <point x="242" y="158" type="line"/>
      <point x="127" y="-89" type="line"/>
      <point x="161" y="-130" type="line"/>
    </contour>
  </outline>
</glyph>
<glyph name="six.lf" format="2">
  <advance width="501"/>
  <outline>
    <contour>
      <point x="58" y="432" type="curve"/>
      <point x="146" y="443" type="line"/>
      <point x="146" y="571"/>
      <point x="192" y="610"/>
      <point x="281" y="610" type="curve" smooth="yes"/>
      <point x="320" y="610"/>
      <point x="364" y="607"/>
      <point x="396" y="603" type="curve"/>
      <point x="405" y="667" type="line"/>
      <point x="381" y="685" type="line"/>
      <point x="351" y="688"/>
      <point x="311" y="690"/>
      <point x="279" y="690" type="curve" smooth="yes"/>
      <point x="137" y="690"/>
      <point x="58" y="623"/>
    </contour>
    <component base="_part.sixBowl"/>
  </outline>
</glyph>
<glyph name="six.osf" format="2">
  <advance width="501"/>
  <anchor x="60" y="428" name="connect"/>
  <anchor x="461" y="428" name="_connect"/>
  <outline>
    <contour>
      <point x="148" y="432" type="line"/>
      <point x="60" y="421" type="line"/>
      <point x="60" y="165" type="line" smooth="yes"/>
      <point x="60" y="45"/>
      <point x="129" y="-10"/>
      <point x="251" y="-10" type="curve" smooth="yes"/>
      <point x="292" y="-10"/>
      <point x="336" y="-4"/>
      <point x="358" y="4" type="curve"/>
      <point x="441" y="109" type="line"/>
      <point x="441" y="263" type="line" smooth="yes"/>
      <point x="441" y="362"/>
      <point x="387" y="416"/>
      <point x="293" y="416" type="curve" smooth="yes"/>
      <point x="261" y="416"/>
      <point x="222" y="413"/>
      <point x="202" y="409" type="curve"/>
      <point x="140" y="355" type="line"/>
      <point x="140" y="325" type="line"/>
      <point x="170" y="334"/>
      <point x="221" y="340"/>
      <point x="266" y="340" type="curve" smooth="yes"/>
      <point x="315" y="340"/>
      <point x="353" y="318"/>
      <point x="353" y="248" type="curve" smooth="yes"/>
      <point x="353" y="61" type="line"/>
      <point x="365" y="83" type="line"/>
      <point x="347" y="74"/>
      <point x="319" y="68"/>
      <point x="255" y="68" type="curve" smooth="yes"/>
      <point x="178" y="68"/>
      <point x="148" y="97"/>
      <point x="148" y="182" type="curve" smooth="yes"/>
    </contour>
    <contour>
      <point x="60" y="421" type="curve"/>
      <point x="148" y="432" type="line"/>
      <point x="148" y="546"/>
      <point x="230" y="621"/>
      <point x="394" y="633" type="curve"/>
      <point x="392" y="680" type="line"/>
      <point x="364" y="690" type="line"/>
      <point x="221" y="690"/>
      <point x="59" y="615"/>
    </contour>
  </outline>
</glyph>
<glyph name="three.osf" format="2">
  <advance width="501"/>
  <anchor x="450" y="132" name="connect"/>
  <outline>
    <contour>
      <point x="450" y="132" type="line"/>
      <point x="450" y="132" type="line" smooth="yes"/>
      <point x="450" y="219"/>
      <point x="385" y="276"/>
      <point x="285" y="276" type="curve" smooth="yes"/>
      <point x="267" y="276"/>
      <point x="220" y="276"/>
      <point x="207" y="274" type="curve"/>
      <point x="217" y="249" type="line"/>
      <point x="438" y="492" type="line"/>
      <point x="418" y="560" type="line"/>
      <point x="75" y="560" type="line"/>
      <point x="45" y="529" type="line"/>
      <point x="58" y="384" type="line"/>
      <point x="109" y="384" type="line"/>
      <point x="131" y="522" type="line"/>
      <point x="82" y="482" type="line"/>
      <point x="386" y="482" type="line"/>
      <point x="360" y="515" type="line"/>
      <point x="142" y="238" type="line"/>
      <point x="164" y="204" type="line"/>
      <point x="177" y="206"/>
      <point x="230" y="207"/>
      <point x="248" y="207" type="curve" smooth="yes"/>
      <point x="322" y="207"/>
      <point x="362" y="177"/>
      <point x="362" y="121" type="curve" smooth="yes"/>
      <point x="362" y="121" type="line"/>
    </contour>
    <component base="_part.tailFiguresOld" xOffset="48"/>
  </outline>
</glyph>
<glyph name="two.lf" format="2">
  <advance width="501"/>
  <outline>
    <contour>
      <point x="138" y="68" type="line"/>
      <point x="260" y="191"/>
      <point x="436" y="344"/>
      <point x="436" y="496" type="curve" smooth="yes"/>
      <point x="436" y="622"/>
      <point x="364" y="690"/>
      <point x="238" y="690" type="curve" smooth="yes"/>
      <point x="196" y="690"/>
      <point x="156" y="685"/>
      <point x="124" y="678" type="curve"/>
      <point x="46" y="614" type="line"/>
      <point x="60" y="476" type="line"/>
      <point x="117" y="476" type="line"/>
      <point x="129" y="601" type="line"/>
      <point x="156" y="607"/>
      <point x="187" y="613"/>
      <point x="219" y="613" type="curve" smooth="yes"/>
      <point x="295" y="613"/>
      <point x="346" y="576"/>
      <point x="346" y="491" type="curve" smooth="yes"/>
      <point x="346" y="345"/>
      <point x="176" y="200"/>
      <point x="40" y="56" type="curve"/>
      <point x="49" y="0" type="line"/>
      <point x="448" y="0" type="line"/>
      <point x="468" y="20" type="line"/>
      <point x="465" y="81" type="line"/>
    </contour>
  </outline>
</glyph>
<glyph name="two.osf" format="2">
  <advance width="501"/>
  <outline>
    <contour>
      <point x="169" y="67" type="line"/>
      <point x="280" y="153"/>
      <point x="432" y="262"/>
      <point x="432" y="398" type="curve" smooth="yes"/>
      <point x="432" y="508"/>
      <point x="359" y="570"/>
      <point x="243" y="570" type="curve" smooth="yes"/>
      <point x="201" y="570"/>
      <point x="162" y="565"/>
      <point x="131" y="558" type="curve"/>
      <point x="53" y="494" type="line"/>
      <point x="71" y="356" type="line"/>
      <point x="122" y="356" type="line"/>
      <point x="138" y="482" type="line"/>
      <point x="164" y="487"/>
      <point x="193" y="493"/>
      <point x="224" y="493" type="curve" smooth="yes"/>
      <point x="297" y="493"/>
      <point x="342" y="455"/>
      <point x="342" y="383" type="curve" smooth="yes"/>
      <point x="342" y="265"/>
      <point x="177" y="148"/>
      <point x="46" y="53" type="curve"/>
      <point x="59" y="0" type="line"/>
      <point x="449" y="0" type="line"/>
      <point x="470" y="20" type="line"/>
      <point x="466" y="82" type="line"/>
    </contour>
  </outline>
</glyph>
<glyph name="u.ss01" format="2">
  <advance width="552"/>
  <outline>
    <contour>
      <point x="238" y="-11" type="curve" smooth="yes"/>
      <point x="268" y="-11"/>
      <point x="295" y="-5"/>
      <point x="320" y="3" type="curve"/>
      <point x="377" y="76" type="line"/>
      <point x="373" y="99" type="line"/>
      <point x="347" y="86"/>
      <point x="308" y="77"/>
      <point x="269" y="77" type="curve" smooth="yes"/>
      <point x="239" y="77"/>
      <point x="212" y="82"/>
      <point x="189" y="96" type="curve"/>
      <point x="189" y="529" type="line"/>
      <point x="169" y="550" type="line"/>
      <point x="18" y="525" type="line"/>
      <point x="18" y="483" type="line"/>
      <point x="94" y="466" type="line"/>
      <point x="94" y="133" type="line" smooth="yes"/>
      <point x="94" y="37"/>
      <point x="158" y="-11"/>
    </contour>
    <contour>
      <point x="427" y="-10" type="curve"/>
      <point x="537" y="9" type="line"/>
      <point x="537" y="53" type="line"/>
      <point x="458" y="72" type="line"/>
      <point x="458" y="530" type="line"/>
      <point x="425" y="547" type="line"/>
      <point x="363" y="527" type="line"/>
      <point x="363" y="82" type="line" smooth="yes"/>
      <point x="363" y="49"/>
      <point x="385" y="5"/>
    </contour>
  </outline>
</glyph>
<glyph name="zero.lf" format="2">
  <advance width="501"/>
  <outline>
    <contour>
      <point x="252" y="-10" type="curve" smooth="yes"/>
      <point x="285" y="-10"/>
      <point x="338" y="-4"/>
      <point x="358" y="4" type="curve"/>
      <point x="441" y="109" type="line"/>
      <point x="441" y="519" type="line" smooth="yes"/>
      <point x="441" y="635"/>
      <point x="371" y="690"/>
      <point x="257" y="690" type="curve" smooth="yes"/>
      <point x="222" y="690"/>
      <point x="164" y="684"/>
      <point x="143" y="676" type="curve"/>
      <point x="60" y="571" type="line"/>
      <point x="60" y="165" type="line" smooth="yes"/>
      <point x="60" y="45"/>
      <point x="136" y="-10"/>
    </contour>
    <contour>
      <point x="353" y="61" type="line"/>
      <point x="365" y="83" type="line"/>
      <point x="349" y="74"/>
      <point x="294" y="68"/>
      <point x="256" y="68" type="curve" smooth="yes"/>
      <point x="180" y="68"/>
      <point x="148" y="105"/>
      <point x="148" y="182" type="curve" smooth="yes"/>
      <point x="148" y="619" type="line"/>
      <point x="135" y="596" type="line"/>
      <point x="152" y="605"/>
      <point x="204" y="612"/>
      <point x="245" y="612" type="curve" smooth="yes"/>
      <point x="314" y="612"/>
      <point x="353" y="579"/>
      <point x="353" y="499" type="curve" smooth="yes"/>
    </contour>
  </outline>
</glyph>
<glyph name="zero.osf" format="2">
  <advance width="501"/>
  <outline>
    <contour>
      <point x="252" y="-10" type="curve" smooth="yes"/>
      <point x="285" y="-10"/>
      <point x="338" y="-4"/>
      <point x="358" y="4" type="curve"/>
      <point x="441" y="109" type="line"/>
      <point x="441" y="399" type="line" smooth="yes"/>
      <point x="441" y="515"/>
      <point x="371" y="570"/>
      <point x="257" y="570" type="curve" smooth="yes"/>
      <point x="222" y="570"/>
      <point x="164" y="564"/>
      <point x="143" y="556" type="curve"/>
      <point x="60" y="451" type="line"/>
      <point x="60" y="165" type="line" smooth="yes"/>
      <point x="60" y="45"/>
      <point x="136" y="-10"/>
    </contour>
    <contour>
      <point x="353" y="61" type="line"/>
      <point x="365" y="83" type="line"/>
      <point x="349" y="74"/>
      <point x="294" y="68"/>
      <point x="256" y="68" type="curve" smooth="yes"/>
      <point x="180" y="68"/>
      <point x="148" y="105"/>
      <point x="148" y="182" type="curve" smooth="yes"/>
      <point x="148" y="499" type="line"/>
      <point x="135" y="476" type="line"/>
      <point x="152" y="485"/>
      <point x="204" y="492"/>
      <point x="245" y="492" type="curve" smooth="yes"/>
      <point x="314" y="492"/>
      <point x="353" y="459"/>
      <point x="353" y="379" type="curve" smooth="yes"/>
    </contour>
  </outline>
</glyph>
